<svg width="32" height="26" viewBox="0 0 32 26" fill="none" xmlns="http://www.w3.org/2000/svg">
<path d="M26.118 11.6282C26.118 11.6282 26.54 13.6952 26.635 14.1282H24.78L25.669 11.7112C25.658 11.7282 25.852 11.2052 25.963 10.8832L26.118 11.6282ZM32.001 3.22218V22.7782C32.0007 23.4854 31.7197 24.1636 31.2196 24.6637C30.7195 25.1638 30.0413 25.4449 29.334 25.4452H2.667C1.95975 25.4449 1.28154 25.1638 0.781439 24.6637C0.281337 24.1636 0.000265037 23.4854 0 22.7782V3.22218C0.000265037 2.51492 0.281337 1.83672 0.781439 1.33661C1.28154 0.836513 1.95975 0.555441 2.667 0.555176H29.334C30.0413 0.555441 30.7195 0.836513 31.2196 1.33661C31.7197 1.83672 32.0007 2.51492 32.001 3.22218ZM8.473 17.1782L11.984 8.55618H9.623L7.44 14.4452L7.201 13.2512L6.423 9.28418C6.295 8.73418 5.901 8.57818 5.412 8.55618H1.818L1.779 8.72818C2.60207 8.9301 3.39159 9.25008 4.123 9.67818L6.112 17.1782H8.473ZM13.718 17.1892L15.118 8.55618H12.885L11.491 17.1892H13.718ZM21.49 14.3672C21.501 13.3842 20.901 12.6342 19.618 12.0172C18.835 11.6222 18.357 11.3562 18.357 10.9502C18.368 10.5832 18.763 10.2052 19.64 10.2052C20.2112 10.1891 20.7788 10.3011 21.301 10.5332L21.501 10.6272L21.807 8.76018C21.1686 8.51578 20.4906 8.39137 19.807 8.39318C17.601 8.39318 16.051 9.57118 16.04 11.2482C16.023 12.4872 17.151 13.1762 17.996 13.5922C18.857 14.0142 19.152 14.2922 19.152 14.6642C19.141 15.2422 18.452 15.5082 17.813 15.5082C16.924 15.5082 16.446 15.3692 15.718 15.0472L15.424 14.9082L15.113 16.8472C15.635 17.0862 16.602 17.2972 17.602 17.3082C19.946 17.3132 21.474 16.1522 21.491 14.3642L21.49 14.3672ZM29.334 17.1892L27.534 8.55618H25.806C25.273 8.55618 24.867 8.71218 24.639 9.27318L21.322 17.1902H23.666C23.666 17.1902 24.049 16.1232 24.133 15.8962H27C27.067 16.2022 27.267 17.1902 27.267 17.1902L29.334 17.1892Z" fill="#C6C6C6"/>
</svg>
