<svg width="31" height="30" viewBox="0 0 31 30" fill="none" xmlns="http://www.w3.org/2000/svg">
<circle cx="15.5" cy="15" r="15" fill="#C6C6C6"/>
<path d="M20.4711 22.5292C19.5227 23.4486 18.4873 23.3034 17.4905 22.8679C16.4356 22.4228 15.4679 22.4034 14.355 22.8679C12.9615 23.4679 12.226 23.2937 11.3937 22.5292C6.67113 17.6615 7.3679 10.2486 12.7292 9.97761C14.0356 10.0454 14.9453 10.6937 15.7098 10.7518C16.8518 10.5195 17.9453 9.8518 19.1647 9.9389C20.626 10.055 21.7292 10.6357 22.455 11.6808C19.4356 13.4905 20.1518 17.4679 22.9195 18.5808C22.3679 20.0324 21.6518 21.4744 20.4615 22.5389L20.4711 22.5292ZM15.6131 9.91954C15.4679 7.76148 17.2195 5.98083 19.2324 5.80664C19.5131 8.30341 16.9679 10.1615 15.6131 9.91954Z" fill="white"/>
</svg>
