<svg width="30" height="30" viewBox="0 0 30 30" fill="none" xmlns="http://www.w3.org/2000/svg">
<g clip-path="url(#clip0_1_163)">
<path d="M24.4312 13.1976C24.548 13.8688 24.6061 14.5489 24.605 15.2301C24.605 18.2726 23.5175 20.8451 21.625 22.5864H21.6275C19.9725 24.1151 17.6975 25.0001 15 25.0001C12.3478 25.0001 9.8043 23.9465 7.92893 22.0712C6.05357 20.1958 5 17.6523 5 15.0001C5 12.3479 6.05357 9.80441 7.92893 7.92904C9.8043 6.05368 12.3478 5.00011 15 5.00011C17.4822 4.97247 19.879 5.90488 21.69 7.60261L18.835 10.4576C17.8028 9.47417 16.4255 8.9355 15 8.95761C12.3913 8.95761 10.175 10.7176 9.385 13.0876C8.96687 14.3296 8.96687 15.6744 9.385 16.9164H9.38875C10.1825 19.2826 12.395 21.0426 15.0037 21.0426C16.3513 21.0426 17.5088 20.6976 18.4062 20.0876H18.4025C18.9237 19.7425 19.3696 19.2952 19.7131 18.773C20.0567 18.2507 20.2908 17.6642 20.4012 17.0489H15V13.1989L24.4312 13.1976Z" fill="#757575"/>
</g>
<defs>
<clipPath id="clip0_1_163">
<rect width="20" height="20" fill="white" transform="translate(5 5)"/>
</clipPath>
</defs>
</svg>
