<svg width="31" height="30" viewBox="0 0 31 30" fill="none" xmlns="http://www.w3.org/2000/svg">
<circle cx="15.5" cy="15" r="15" fill="#757575"/>
<path d="M24.2089 14.3064C24.2089 10.4093 20.302 7.23874 15.4996 7.23874C10.6972 7.23874 6.79033 10.4093 6.79033 14.3064C6.79033 17.8002 9.88906 20.7259 14.0743 21.2794C14.3576 21.3406 14.7437 21.4663 14.8416 21.7087C14.9298 21.9292 14.8988 22.2736 14.8702 22.4965C14.8702 22.4965 14.7682 23.1112 14.7461 23.2418C14.7078 23.4622 14.5714 24.103 15.5004 23.7112C16.4302 23.3193 20.5159 20.7577 22.3428 18.6549C23.6048 17.2704 24.2097 15.8664 24.2097 14.3064H24.2089Z" fill="white"/>
<path d="M21.3109 16.557H18.8645C18.7722 16.557 18.6979 16.4828 18.6979 16.3905V16.3881V12.5938V12.5897C18.6979 12.4975 18.7722 12.4232 18.8645 12.4232H21.3109C21.4024 12.4232 21.4775 12.4983 21.4775 12.5897V13.2077C21.4775 13.2999 21.4032 13.3742 21.3109 13.3742H19.6481V14.0158H21.3109C21.4024 14.0158 21.4775 14.0909 21.4775 14.1824V14.8003C21.4775 14.8926 21.4032 14.9669 21.3109 14.9669H19.6481V15.6085H21.3109C21.4024 15.6085 21.4775 15.6836 21.4775 15.775V16.393C21.4775 16.4852 21.4032 16.5595 21.3109 16.5595V16.557Z" fill="#757575"/>
<path d="M12.2603 16.557C12.3517 16.557 12.4268 16.4827 12.4268 16.3905V15.7725C12.4268 15.6811 12.3517 15.606 12.2603 15.606H10.5974V12.5889C10.5974 12.4975 10.5223 12.4224 10.4309 12.4224H9.81295C9.72071 12.4224 9.64642 12.4966 9.64642 12.5889V16.3872V16.3905C9.64642 16.4827 9.72071 16.557 9.81295 16.557H12.2594H12.2603Z" fill="#757575"/>
<path d="M13.7329 12.4232H13.1157C13.0238 12.4232 12.9492 12.4978 12.9492 12.5897V16.3905C12.9492 16.4825 13.0238 16.557 13.1157 16.557H13.7329C13.8248 16.557 13.8994 16.4825 13.8994 16.3905V12.5897C13.8994 12.4978 13.8248 12.4232 13.7329 12.4232Z" fill="#757575"/>
<path d="M17.9378 12.4232H17.3199C17.2276 12.4232 17.1534 12.4975 17.1534 12.5897V14.8469L15.4146 12.4983C15.4105 12.4926 15.4056 12.4869 15.4015 12.4812C15.4015 12.4812 15.4015 12.4812 15.4007 12.4804C15.3975 12.4771 15.3942 12.473 15.3909 12.4697C15.3901 12.4689 15.3885 12.4681 15.3877 12.4673C15.3844 12.4648 15.382 12.4624 15.3787 12.46C15.3771 12.4591 15.3754 12.4575 15.3738 12.4567C15.3713 12.4542 15.3681 12.4526 15.3648 12.451C15.3632 12.4502 15.3615 12.4485 15.3599 12.4477C15.3567 12.4461 15.3542 12.4444 15.3509 12.4428C15.3493 12.442 15.3477 12.4412 15.346 12.4404C15.3428 12.4387 15.3395 12.4371 15.3362 12.4363C15.3346 12.4363 15.333 12.4346 15.3305 12.4346C15.3273 12.4338 15.324 12.4322 15.3207 12.4314C15.3191 12.4314 15.3167 12.4306 15.315 12.4297C15.3118 12.4297 15.3085 12.4281 15.3052 12.4273C15.3028 12.4273 15.3003 12.4273 15.2979 12.4265C15.2946 12.4265 15.2922 12.4257 15.2889 12.4257C15.2856 12.4257 15.2832 12.4257 15.2799 12.4257C15.2783 12.4257 15.2758 12.4257 15.2742 12.4257H14.6603C14.5689 12.4257 14.4938 12.5 14.4938 12.5922V16.393C14.4938 16.4844 14.5681 16.5595 14.6603 16.5595H15.2783C15.3705 16.5595 15.4448 16.4852 15.4448 16.393V14.1358L17.186 16.4877C17.1983 16.5048 17.213 16.5187 17.2293 16.5293C17.2293 16.5293 17.2309 16.5301 17.2309 16.5309C17.2342 16.5334 17.2374 16.535 17.2415 16.5374C17.2432 16.5383 17.2448 16.5391 17.2464 16.5399C17.2489 16.5415 17.2521 16.5423 17.2546 16.544C17.257 16.5456 17.2603 16.5464 17.2627 16.5472C17.2644 16.5472 17.266 16.5489 17.2676 16.5489C17.2717 16.5505 17.275 16.5513 17.2791 16.5521C17.2791 16.5521 17.2807 16.5521 17.2815 16.5521C17.2954 16.5554 17.3101 16.5579 17.3248 16.5579H17.9387C18.0301 16.5579 18.1052 16.4836 18.1052 16.3913V12.5906C18.1052 12.4991 18.0309 12.424 17.9387 12.424L17.9378 12.4232Z" fill="#757575"/>
</svg>
