<svg width="15" height="14" viewBox="0 0 15 14" fill="none" xmlns="http://www.w3.org/2000/svg">
<path d="M5.28057 4.62271L6.96957 1.31828C7.01874 1.22265 7.09435 1.14221 7.18794 1.086C7.28152 1.02978 7.38938 1 7.49941 1C7.60945 1 7.7173 1.02978 7.81089 1.086C7.90448 1.14221 7.98009 1.22265 8.02926 1.31828L9.71826 4.62271L13.4941 5.15576C13.603 5.17043 13.7055 5.21455 13.7899 5.28309C13.8742 5.35163 13.937 5.44182 13.9711 5.54338C14.0052 5.64493 14.0092 5.75375 13.9827 5.85741C13.9562 5.96108 13.9002 6.05542 13.8211 6.12966L11.0894 8.70018L11.7343 12.3318C11.8168 12.7979 11.3097 13.1528 10.8761 12.933L7.49941 11.2177L4.12206 12.933C3.68908 13.1535 3.18199 12.7979 3.26456 12.3311L3.90947 8.69955L1.17768 6.12902C1.09901 6.05473 1.04337 5.96049 1.01708 5.85701C0.990793 5.75353 0.994916 5.64496 1.02898 5.54364C1.06304 5.44232 1.12568 5.35232 1.20978 5.28386C1.29387 5.21541 1.39605 5.17124 1.50469 5.15639L5.28057 4.62271Z" fill="#FFA726" stroke="#FFA726" stroke-width="1.5" stroke-linecap="round" stroke-linejoin="round"/>
</svg>
