<svg width="82" height="82" viewBox="0 0 82 82" fill="none" xmlns="http://www.w3.org/2000/svg">
<circle cx="40.8766" cy="40.5364" r="39" fill="#FFA726" stroke="white" stroke-width="3"/>
<path d="M26.8515 41.7307L26.8506 41.7283C26.7183 41.3631 26.6503 40.967 26.6503 40.5364C26.6503 40.1058 26.7183 39.7098 26.8506 39.3446L26.8515 39.3422C26.974 38.9983 27.1875 38.6667 27.5076 38.3484L44.3147 21.6399C44.8814 21.0765 45.6027 20.7864 46.5197 20.7864C47.4368 20.7864 48.1581 21.0765 48.7248 21.6399C49.2913 22.2031 49.5821 22.9187 49.5821 23.8279C49.5821 24.7371 49.2913 25.4527 48.7248 26.0159L34.4754 40.1818L34.1187 40.5364L34.4754 40.891L48.7248 55.0569C49.2913 55.6201 49.5821 56.3358 49.5821 57.245C49.5821 58.1541 49.2913 58.8698 48.7248 59.433C48.1581 59.9964 47.4368 60.2864 46.5197 60.2864C45.6027 60.2864 44.8814 59.9964 44.3147 59.433L27.5076 42.7244C27.1875 42.4062 26.974 42.0746 26.8515 41.7307Z" fill="white" stroke="white"/>
</svg>
