<svg width="82" height="82" viewBox="0 0 82 82" fill="none" xmlns="http://www.w3.org/2000/svg">
<circle cx="41" cy="40.5364" r="39" fill="white" stroke="#FFA726" stroke-width="3"/>
<path d="M26.9749 41.7307L26.9741 41.7283C26.8418 41.3631 26.7737 40.967 26.7737 40.5364C26.7737 40.1058 26.8418 39.7098 26.9741 39.3446L26.9749 39.3422C27.0975 38.9983 27.3109 38.6667 27.631 38.3484L44.4381 21.6399C45.0048 21.0765 45.7261 20.7864 46.6432 20.7864C47.5602 20.7864 48.2816 21.0765 48.8483 21.6399C49.4148 22.2031 49.7056 22.9187 49.7056 23.8279C49.7056 24.7371 49.4148 25.4527 48.8483 26.0159L34.5988 40.1818L34.2421 40.5364L34.5988 40.891L48.8483 55.0569C49.4148 55.6201 49.7056 56.3358 49.7056 57.245C49.7056 58.1541 49.4148 58.8698 48.8483 59.433C48.2815 59.9964 47.5602 60.2864 46.6432 60.2864C45.7261 60.2864 45.0048 59.9964 44.4381 59.433L27.631 42.7244C27.3109 42.4062 27.0975 42.0746 26.9749 41.7307Z" fill="#FFA726" stroke="#FFA726"/>
</svg>
