<svg width="1190" height="510" viewBox="0 0 1190 510" fill="none" xmlns="http://www.w3.org/2000/svg">
<mask id="path-1-outside-1_14_2" maskUnits="userSpaceOnUse" x="-0.623413" y="0" width="1190" height="510" fill="black">
<rect fill="white" x="-0.623413" width="1190" height="510"/>
<path d="M12.793 231.556C15.0189 239.7 14.1083 322.404 17.4471 334.046C18.8636 343.397 20.8871 345.749 22.3036 353.471C22.3036 354.255 26.6541 426.704 26.6541 427.488C25.6424 429.238 20.0777 352.686 20.0777 352.686C19.2683 357.754 23.8212 433.34 24.833 438.105C24.2259 437.14 23.72 438.105 23.0118 439.613C23.3153 443.474 25.5412 442.147 24.833 447.214C24.0235 446.37 22.8094 445.284 22 443.414C22.8094 447.938 24.3271 452.402 25.2377 457.047C24.1247 458.314 23.3153 454.272 22.4047 452.583C23.2141 457.831 24.2259 466.216 26.2494 467.785L26.5529 465.251C26.1482 465.915 25.0353 465.13 24.7318 464.044C23.0118 459.581 25.0353 457.53 25.6424 457.228L26.2494 460.546C29.9929 457.047 24.833 447.154 24.833 440.398L27.2612 442.69C27.767 453.548 28.3741 464.346 29.1835 475.204C39.807 475.446 50.3292 475.928 60.6491 476.471C61.0538 476.471 61.4585 476.471 61.7621 476.532C61.0538 477.135 60.1433 477.738 59.9409 478.341C59.2327 478.16 58.3221 478.04 56.7033 478.04L53.4657 479.246H60.2444V479.125C61.155 479.97 64.2915 480.875 72.082 482.021L84.6278 481.719L88.3713 482.926L78.0514 482.202C83.7172 483.469 87.5619 482.986 91.9124 482.805C92.823 483.348 94.4418 483.831 96.87 484.253L109.315 483.469C110.63 484.313 103.548 484.494 111.541 485.58C117.409 485.218 106.482 483.469 115.992 483.71C121.658 485.098 119.837 485.64 126.919 485.52C127.729 486.063 126.211 486.304 123.479 486.244C129.752 486.244 139.87 487.39 143.31 486.666C149.178 488.234 164.253 488.053 163.342 489.803C165.366 489.501 174.573 489.2 180.34 489.501C169.413 491.07 201.789 490.889 198.754 493C206.848 491.492 227.387 493 241.349 491.552C240.54 491.733 239.022 492.095 237.808 491.975C245.699 491.975 248.027 492.517 253.085 492.698C253.996 491.07 266.238 490.104 272.511 488.536C282.426 489.26 267.149 490.889 270.487 492.095C269.779 490.889 286.878 489.32 283.236 488.536C290.723 488.717 289.61 488.355 293.758 489.2C294.365 487.088 300.334 488.053 305.798 486.123C316.421 485.761 309.137 487.631 320.165 485.58C325.729 485.46 316.017 487.511 316.017 487.511C327.449 486.063 320.873 485.339 322.998 484.193C336.454 482.021 329.675 484.494 334.532 484.675C342.828 483.228 348.797 481.116 355.172 480.573C355.677 480.754 356.993 480.754 355.576 481.176C364.176 479.005 381.983 478.824 392.303 477.074C393.112 477.195 393.517 477.316 393.719 477.436C391.999 476.713 391.595 475.989 391.898 475.385C397.058 475.204 401.51 474.239 403.432 475.204C400.296 475.204 399.992 475.627 398.475 475.928L403.938 475.446C408.896 476.833 396.552 475.989 396.654 477.074C407.075 476.351 419.519 475.325 427.613 475.989C429.232 477.376 408.592 476.109 419.418 477.497C415.27 477.255 411.122 477.074 406.973 476.894C416.484 479.065 399.385 476.773 408.188 479.065C424.477 479.548 426.5 478.522 442.891 479.548C446.634 478.945 441.778 478.341 445.623 477.738C469.298 477.557 463.429 482.202 481.034 481.538C485.688 480.935 487.712 479.306 499.853 481.056L495.401 482.323C511.488 483.589 505.013 480.694 521.606 482.926C518.469 483.348 508.857 482.564 511.286 482.926C522.01 484.917 519.177 482.564 527.575 483.167L529.092 484.675C546.292 485.821 566.022 485.279 585.245 484.675C584.233 485.098 580.894 485.58 585.447 485.942C609.73 484.977 637.35 483.891 660.722 482.986L669.322 481.116C671.346 480.935 673.268 481.358 671.042 481.78C680.148 481.478 671.346 480.996 675.595 480.151C680.654 479.668 682.475 480.272 679.338 480.935C694.92 478.583 723.856 474.963 740.651 475.204L737.514 475.747C750.465 475.385 751.679 472.309 763.82 472.852L761.594 473.153C789.721 472.249 820.58 471.163 841.928 474.662C846.278 473.153 869.751 477.135 871.876 474.843C887.862 477.014 883.207 477.195 905.77 479.367C911.84 479.789 915.078 478.341 922.666 478.462V479.729L933.087 478.884L938.348 480.634H945.532C942.699 480.392 939.562 479.789 940.068 479.427C951.197 479.306 967.082 481.177 967.386 481.84C976.188 481.719 985.091 481.418 993.894 481.116C993.489 481.478 990.858 481.659 988.228 481.84C997.839 481.237 988.936 483.348 1000.98 482.202C999.256 481.9 1001.89 481.418 1002.19 481.176C1008.67 481.9 1023.44 481.719 1034.26 480.935L1032.24 481.9C1042.15 481.659 1052.47 480.996 1063.2 480.03C1073.92 479.065 1084.65 477.798 1095.37 476.713C1087.58 477.074 1088.9 475.446 1095.17 474.662L1098.1 475.747C1101.95 474.541 1091.43 475.928 1099.42 474.058C1107.41 473.395 1105.19 475.023 1100.74 475.928L1110.25 474.541C1110.95 474.903 1108.73 475.325 1108.22 475.868C1111.97 474.662 1125.02 475.747 1130.28 474.058L1130.89 474.42C1141.31 473.877 1148.69 473.757 1155.57 473.877C1158.41 473.877 1162.25 474.179 1165.59 474.36C1168.93 474.541 1172.27 474.722 1175.71 474.903C1176.92 475.204 1176.52 474.36 1176.62 473.877V472.249C1176.82 471.163 1176.92 470.077 1177.02 468.991C1177.22 466.819 1177.43 464.527 1177.63 462.054C1175.71 461.752 1176.62 457.65 1175.3 454.453C1176.72 446.732 1179.05 438.105 1179.55 428.755C1179.05 422.119 1178.03 426.764 1177.12 423.808C1178.94 423.386 1179.35 413.976 1180.36 418.862C1180.66 407.581 1176.62 332.659 1175.3 318.422C1174.59 319.991 1174.19 321.74 1173.68 320.835C1173.38 318.241 1174.49 314.924 1175.3 315.346L1175.5 316.009C1172.87 300.024 1175.5 207.245 1170.85 194.577L1171.05 195.301L1168.02 182.15C1167.71 176.058 1169.74 185.77 1170.34 181.246C1165.99 167.13 1168.32 158.684 1164.48 147.042C1168.32 137.631 1153.95 43.164 1152.64 30.6166L1151.73 31.4611C1150.51 29.8927 1150.51 29.1688 1150.41 27.902C1150.21 26.3336 1150.41 24.8255 1149.3 22.7744C1149 23.6793 1150.72 29.0481 1148.89 25.7906C1148.69 25.0668 1148.19 24.4635 1147.88 23.8L1147.38 22.8348C1147.38 22.8348 1146.37 22.4728 1145.86 22.2919C1143.73 21.6886 1141.51 21.0251 1139.38 20.4218C1138.27 20.1805 1136.96 20.0599 1135.74 19.8186L1133.01 19.4566L1128.15 19.155C1121.68 18.8534 1115.61 19.0344 1109.64 19.336C1097.7 19.9392 1086.06 20.9044 1074.43 21.8093C1062.9 22.7141 1051.26 23.6793 1040.23 24.1619C1037.4 24.3429 1034.87 24.2825 1032.14 24.3429C1029.51 24.3429 1027.48 24.2825 1024.35 24.1016C1018.38 23.8603 1012.51 23.6793 1006.64 23.5587C989.442 23.438 997.03 27.2987 975.48 26.0319L981.449 24.5238C947.151 26.9368 911.233 27.7813 878.452 32.3056C880.273 31.823 880.273 31.4008 883.511 31.0992C879.767 30.9785 873.697 31.4008 868.335 32.0643C862.972 32.7279 858.419 33.2105 858.419 33.6931C853.361 33.8137 857.205 33.0295 854.069 32.7279C847.29 32.366 836.97 34.417 833.328 33.3311C832.721 33.1502 835.25 33.0295 836.464 32.9692C834.238 33.2105 829.078 33.0899 824.93 33.0899C820.782 33.0899 817.747 33.0899 819.871 33.6931C807.73 32.8486 796.399 33.1502 786.787 31.823C780.109 32.6676 765.945 29.5911 763.517 31.1595C764.832 29.4101 742.371 27.721 734.277 27.902C737.009 27.6004 727.599 26.6955 730.837 26.2129C721.832 25.4287 713.536 25.0668 714.851 26.2129C698.764 22.5935 681.058 25.6097 672.054 22.3522C658.294 22.3522 645.445 22.5332 632.899 22.5935C620.353 22.5935 608.111 22.6538 596.071 22.7141C597.083 20.8441 622.68 23.0761 621.769 21.0854C598.904 21.387 585.65 22.7141 562.986 21.8696C557.118 21.5076 566.325 21.1457 568.349 20.8441C545.483 21.206 524.236 19.9995 503.799 20.8441C503.799 20.6631 506.024 20.4821 508.149 20.3615C504.102 20.3615 498.841 19.9995 499.246 20.8441L503.192 20.6631C509.566 21.9299 487.206 23.0761 486.498 23.7396C493.377 21.387 466.465 23.0157 477.291 19.9995C474.66 20.1202 471.321 20.5425 471.928 21.0854C467.982 20.9044 466.768 20.5425 470.714 19.9392C456.347 20.3615 461.406 21.2663 448.455 21.2663C448.455 20.8441 451.086 20.7234 452.503 20.2408C445.926 21.0251 439.35 21.8093 428.322 21.568C428.827 21.387 428.119 21.0854 429.637 21.0251C411.425 21.3267 398.272 23.438 378.037 23.3174C384.007 21.3267 370.955 22.9554 369.741 21.4473L358.611 22.2919L363.164 22.8951C353.452 23.257 344.953 24.7048 336.555 24.5842L343.739 23.619L325.527 24.7651L335.948 24.8858C326.235 26.1526 337.263 26.7558 324.313 26.9368C326.944 26.6352 314.6 27.3591 309.44 26.7558C304.685 27.4797 299.828 28.2036 292.645 28.2036C290.723 27.7813 293.859 26.4542 292.645 26.1526C288.092 27.6607 269.982 27.6004 264.215 29.2894C266.137 28.8672 266.137 28.083 265.53 27.9623L261.685 29.1688C257.132 29.0481 256.424 28.9275 257.132 28.2639C243.575 28.6862 261.685 30.0133 245.497 29.8927C246.711 29.772 246.104 29.6514 248.735 29.3498C232.547 29.5911 217.674 31.2801 202.801 31.1595C198.349 29.772 215.65 30.4356 210.591 29.2291C189.345 30.1943 166.58 31.9437 145.94 31.1595L149.785 31.4008C146.75 33.5724 134.507 30.0133 123.985 30.6769C126.515 30.6166 127.425 29.5911 126.717 29.772C112.653 28.9878 97.6794 29.2291 76.0278 29.5911L78.7596 29.0481C70.362 28.3846 56.6021 28.6259 47.4963 28.5052C44.8657 29.1085 39.6046 29.1085 42.8422 29.8927C39.3011 29.5307 35.8611 29.3498 32.4211 29.2894C27.9694 29.2894 22.9106 29.2894 18.2565 29.4101C17.6495 32.004 17.6495 34.9599 17.346 37.6142C17.346 39.6048 17.346 41.5352 17.2448 43.4656C17.2448 51.1871 17.4471 58.6672 14.513 65.9664C14.6142 64.217 14.1083 61.7438 13.906 63.1312L13.6025 75.7389C15.3224 74.7737 14.7154 74.1102 16.233 71.5162C17.0424 73.145 17.4471 76.7041 17.2448 79.7806C16.6377 74.1102 14.7154 79.7806 13.6025 82.1936C14.1083 81.7713 14.6142 82.6762 15.1201 82.4349C11.7813 88.8896 18.2565 83.6414 15.626 92.509L14.8166 92.0264C15.0189 95.4045 20.1789 170.206 19.673 173.826C17.7507 175.274 19.0659 170.267 17.5483 169.965C17.346 175.032 20.3812 180.039 18.3577 184.624C17.953 182.452 18.1554 179.376 17.7507 177.204C15.3224 182.15 15.8283 182.754 15.3224 186.494V186.132L14.0072 194.698L14.7154 192.526C19.2683 198.981 15.0189 205.496 17.953 214.062C15.2213 205.737 16.233 212.674 14.2095 212.011C13.6025 214.182 12.793 217.5 12.2872 216.535C13.8048 220.577 10.8707 223.291 13.1977 229.022C12.4895 229.264 13.0966 233.366 11.3766 232.461C11.8825 237.709 12.5907 231.194 13.4001 231.676L12.793 231.556ZM27.2612 441.906L25.1365 436.476C25.5412 435.572 26.3506 434.787 26.9576 435.21C26.9576 437.442 27.16 439.674 27.2612 441.906ZM600.523 483.167C599.308 483.469 604.772 483.529 608.212 483.71C605.379 483.77 601.838 483.891 598.196 484.012C597.386 483.65 598.195 483.228 600.523 483.167ZM585.043 484.374C582.614 484.434 580.591 484.494 579.377 484.555C580.591 484.555 582.21 484.494 585.043 484.374ZM20.0777 47.447C19.8753 48.9551 19.7742 50.5235 19.5718 52.0316C18.8636 51.73 18.4589 50.5235 18.3577 47.5676C18.8636 47.447 19.5718 47.266 20.0777 47.5073V47.447ZM21.7977 326.807C21.7977 328.677 21.7977 330.547 21.7977 332.357C21.2918 331.995 20.7859 331.03 20.0777 328.677L21.6965 326.747L21.7977 326.807Z"/>
</mask>
<path d="M12.793 231.556C15.0189 239.7 14.1083 322.404 17.4471 334.046C18.8636 343.397 20.8871 345.749 22.3036 353.471C22.3036 354.255 26.6541 426.704 26.6541 427.488C25.6424 429.238 20.0777 352.686 20.0777 352.686C19.2683 357.754 23.8212 433.34 24.833 438.105C24.2259 437.14 23.72 438.105 23.0118 439.613C23.3153 443.474 25.5412 442.147 24.833 447.214C24.0235 446.37 22.8094 445.284 22 443.414C22.8094 447.938 24.3271 452.402 25.2377 457.047C24.1247 458.314 23.3153 454.272 22.4047 452.583C23.2141 457.831 24.2259 466.216 26.2494 467.785L26.5529 465.251C26.1482 465.915 25.0353 465.13 24.7318 464.044C23.0118 459.581 25.0353 457.53 25.6424 457.228L26.2494 460.546C29.9929 457.047 24.833 447.154 24.833 440.398L27.2612 442.69C27.767 453.548 28.3741 464.346 29.1835 475.204C39.807 475.446 50.3292 475.928 60.6491 476.471C61.0538 476.471 61.4585 476.471 61.7621 476.532C61.0538 477.135 60.1433 477.738 59.9409 478.341C59.2327 478.16 58.3221 478.04 56.7033 478.04L53.4657 479.246H60.2444V479.125C61.155 479.97 64.2915 480.875 72.082 482.021L84.6278 481.719L88.3713 482.926L78.0514 482.202C83.7172 483.469 87.5619 482.986 91.9124 482.805C92.823 483.348 94.4418 483.831 96.87 484.253L109.315 483.469C110.63 484.313 103.548 484.494 111.541 485.58C117.409 485.218 106.482 483.469 115.992 483.71C121.658 485.098 119.837 485.64 126.919 485.52C127.729 486.063 126.211 486.304 123.479 486.244C129.752 486.244 139.87 487.39 143.31 486.666C149.178 488.234 164.253 488.053 163.342 489.803C165.366 489.501 174.573 489.2 180.34 489.501C169.413 491.07 201.789 490.889 198.754 493C206.848 491.492 227.387 493 241.349 491.552C240.54 491.733 239.022 492.095 237.808 491.975C245.699 491.975 248.027 492.517 253.085 492.698C253.996 491.07 266.238 490.104 272.511 488.536C282.426 489.26 267.149 490.889 270.487 492.095C269.779 490.889 286.878 489.32 283.236 488.536C290.723 488.717 289.61 488.355 293.758 489.2C294.365 487.088 300.334 488.053 305.798 486.123C316.421 485.761 309.137 487.631 320.165 485.58C325.729 485.46 316.017 487.511 316.017 487.511C327.449 486.063 320.873 485.339 322.998 484.193C336.454 482.021 329.675 484.494 334.532 484.675C342.828 483.228 348.797 481.116 355.172 480.573C355.677 480.754 356.993 480.754 355.576 481.176C364.176 479.005 381.983 478.824 392.303 477.074C393.112 477.195 393.517 477.316 393.719 477.436C391.999 476.713 391.595 475.989 391.898 475.385C397.058 475.204 401.51 474.239 403.432 475.204C400.296 475.204 399.992 475.627 398.475 475.928L403.938 475.446C408.896 476.833 396.552 475.989 396.654 477.074C407.075 476.351 419.519 475.325 427.613 475.989C429.232 477.376 408.592 476.109 419.418 477.497C415.27 477.255 411.122 477.074 406.973 476.894C416.484 479.065 399.385 476.773 408.188 479.065C424.477 479.548 426.5 478.522 442.891 479.548C446.634 478.945 441.778 478.341 445.623 477.738C469.298 477.557 463.429 482.202 481.034 481.538C485.688 480.935 487.712 479.306 499.853 481.056L495.401 482.323C511.488 483.589 505.013 480.694 521.606 482.926C518.469 483.348 508.857 482.564 511.286 482.926C522.01 484.917 519.177 482.564 527.575 483.167L529.092 484.675C546.292 485.821 566.022 485.279 585.245 484.675C584.233 485.098 580.894 485.58 585.447 485.942C609.73 484.977 637.35 483.891 660.722 482.986L669.322 481.116C671.346 480.935 673.268 481.358 671.042 481.78C680.148 481.478 671.346 480.996 675.595 480.151C680.654 479.668 682.475 480.272 679.338 480.935C694.92 478.583 723.856 474.963 740.651 475.204L737.514 475.747C750.465 475.385 751.679 472.309 763.82 472.852L761.594 473.153C789.721 472.249 820.58 471.163 841.928 474.662C846.278 473.153 869.751 477.135 871.876 474.843C887.862 477.014 883.207 477.195 905.77 479.367C911.84 479.789 915.078 478.341 922.666 478.462V479.729L933.087 478.884L938.348 480.634H945.532C942.699 480.392 939.562 479.789 940.068 479.427C951.197 479.306 967.082 481.177 967.386 481.84C976.188 481.719 985.091 481.418 993.894 481.116C993.489 481.478 990.858 481.659 988.228 481.84C997.839 481.237 988.936 483.348 1000.98 482.202C999.256 481.9 1001.89 481.418 1002.19 481.176C1008.67 481.9 1023.44 481.719 1034.26 480.935L1032.24 481.9C1042.15 481.659 1052.47 480.996 1063.2 480.03C1073.92 479.065 1084.65 477.798 1095.37 476.713C1087.58 477.074 1088.9 475.446 1095.17 474.662L1098.1 475.747C1101.95 474.541 1091.43 475.928 1099.42 474.058C1107.41 473.395 1105.19 475.023 1100.74 475.928L1110.25 474.541C1110.95 474.903 1108.73 475.325 1108.22 475.868C1111.97 474.662 1125.02 475.747 1130.28 474.058L1130.89 474.42C1141.31 473.877 1148.69 473.757 1155.57 473.877C1158.41 473.877 1162.25 474.179 1165.59 474.36C1168.93 474.541 1172.27 474.722 1175.71 474.903C1176.92 475.204 1176.52 474.36 1176.62 473.877V472.249C1176.82 471.163 1176.92 470.077 1177.02 468.991C1177.22 466.819 1177.43 464.527 1177.63 462.054C1175.71 461.752 1176.62 457.65 1175.3 454.453C1176.72 446.732 1179.05 438.105 1179.55 428.755C1179.05 422.119 1178.03 426.764 1177.12 423.808C1178.94 423.386 1179.35 413.976 1180.36 418.862C1180.66 407.581 1176.62 332.659 1175.3 318.422C1174.59 319.991 1174.19 321.74 1173.68 320.835C1173.38 318.241 1174.49 314.924 1175.3 315.346L1175.5 316.009C1172.87 300.024 1175.5 207.245 1170.85 194.577L1171.05 195.301L1168.02 182.15C1167.71 176.058 1169.74 185.77 1170.34 181.246C1165.99 167.13 1168.32 158.684 1164.48 147.042C1168.32 137.631 1153.95 43.164 1152.64 30.6166L1151.73 31.4611C1150.51 29.8927 1150.51 29.1688 1150.41 27.902C1150.21 26.3336 1150.41 24.8255 1149.3 22.7744C1149 23.6793 1150.72 29.0481 1148.89 25.7906C1148.69 25.0668 1148.19 24.4635 1147.88 23.8L1147.38 22.8348C1147.38 22.8348 1146.37 22.4728 1145.86 22.2919C1143.73 21.6886 1141.51 21.0251 1139.38 20.4218C1138.27 20.1805 1136.96 20.0599 1135.74 19.8186L1133.01 19.4566L1128.15 19.155C1121.68 18.8534 1115.61 19.0344 1109.64 19.336C1097.7 19.9392 1086.06 20.9044 1074.43 21.8093C1062.9 22.7141 1051.26 23.6793 1040.23 24.1619C1037.4 24.3429 1034.87 24.2825 1032.14 24.3429C1029.51 24.3429 1027.48 24.2825 1024.35 24.1016C1018.38 23.8603 1012.51 23.6793 1006.64 23.5587C989.442 23.438 997.03 27.2987 975.48 26.0319L981.449 24.5238C947.151 26.9368 911.233 27.7813 878.452 32.3056C880.273 31.823 880.273 31.4008 883.511 31.0992C879.767 30.9785 873.697 31.4008 868.335 32.0643C862.972 32.7279 858.419 33.2105 858.419 33.6931C853.361 33.8137 857.205 33.0295 854.069 32.7279C847.29 32.366 836.97 34.417 833.328 33.3311C832.721 33.1502 835.25 33.0295 836.464 32.9692C834.238 33.2105 829.078 33.0899 824.93 33.0899C820.782 33.0899 817.747 33.0899 819.871 33.6931C807.73 32.8486 796.399 33.1502 786.787 31.823C780.109 32.6676 765.945 29.5911 763.517 31.1595C764.832 29.4101 742.371 27.721 734.277 27.902C737.009 27.6004 727.599 26.6955 730.837 26.2129C721.832 25.4287 713.536 25.0668 714.851 26.2129C698.764 22.5935 681.058 25.6097 672.054 22.3522C658.294 22.3522 645.445 22.5332 632.899 22.5935C620.353 22.5935 608.111 22.6538 596.071 22.7141C597.083 20.8441 622.68 23.0761 621.769 21.0854C598.904 21.387 585.65 22.7141 562.986 21.8696C557.118 21.5076 566.325 21.1457 568.349 20.8441C545.483 21.206 524.236 19.9995 503.799 20.8441C503.799 20.6631 506.024 20.4821 508.149 20.3615C504.102 20.3615 498.841 19.9995 499.246 20.8441L503.192 20.6631C509.566 21.9299 487.206 23.0761 486.498 23.7396C493.377 21.387 466.465 23.0157 477.291 19.9995C474.66 20.1202 471.321 20.5425 471.928 21.0854C467.982 20.9044 466.768 20.5425 470.714 19.9392C456.347 20.3615 461.406 21.2663 448.455 21.2663C448.455 20.8441 451.086 20.7234 452.503 20.2408C445.926 21.0251 439.35 21.8093 428.322 21.568C428.827 21.387 428.119 21.0854 429.637 21.0251C411.425 21.3267 398.272 23.438 378.037 23.3174C384.007 21.3267 370.955 22.9554 369.741 21.4473L358.611 22.2919L363.164 22.8951C353.452 23.257 344.953 24.7048 336.555 24.5842L343.739 23.619L325.527 24.7651L335.948 24.8858C326.235 26.1526 337.263 26.7558 324.313 26.9368C326.944 26.6352 314.6 27.3591 309.44 26.7558C304.685 27.4797 299.828 28.2036 292.645 28.2036C290.723 27.7813 293.859 26.4542 292.645 26.1526C288.092 27.6607 269.982 27.6004 264.215 29.2894C266.137 28.8672 266.137 28.083 265.53 27.9623L261.685 29.1688C257.132 29.0481 256.424 28.9275 257.132 28.2639C243.575 28.6862 261.685 30.0133 245.497 29.8927C246.711 29.772 246.104 29.6514 248.735 29.3498C232.547 29.5911 217.674 31.2801 202.801 31.1595C198.349 29.772 215.65 30.4356 210.591 29.2291C189.345 30.1943 166.58 31.9437 145.94 31.1595L149.785 31.4008C146.75 33.5724 134.507 30.0133 123.985 30.6769C126.515 30.6166 127.425 29.5911 126.717 29.772C112.653 28.9878 97.6794 29.2291 76.0278 29.5911L78.7596 29.0481C70.362 28.3846 56.6021 28.6259 47.4963 28.5052C44.8657 29.1085 39.6046 29.1085 42.8422 29.8927C39.3011 29.5307 35.8611 29.3498 32.4211 29.2894C27.9694 29.2894 22.9106 29.2894 18.2565 29.4101C17.6495 32.004 17.6495 34.9599 17.346 37.6142C17.346 39.6048 17.346 41.5352 17.2448 43.4656C17.2448 51.1871 17.4471 58.6672 14.513 65.9664C14.6142 64.217 14.1083 61.7438 13.906 63.1312L13.6025 75.7389C15.3224 74.7737 14.7154 74.1102 16.233 71.5162C17.0424 73.145 17.4471 76.7041 17.2448 79.7806C16.6377 74.1102 14.7154 79.7806 13.6025 82.1936C14.1083 81.7713 14.6142 82.6762 15.1201 82.4349C11.7813 88.8896 18.2565 83.6414 15.626 92.509L14.8166 92.0264C15.0189 95.4045 20.1789 170.206 19.673 173.826C17.7507 175.274 19.0659 170.267 17.5483 169.965C17.346 175.032 20.3812 180.039 18.3577 184.624C17.953 182.452 18.1554 179.376 17.7507 177.204C15.3224 182.15 15.8283 182.754 15.3224 186.494V186.132L14.0072 194.698L14.7154 192.526C19.2683 198.981 15.0189 205.496 17.953 214.062C15.2213 205.737 16.233 212.674 14.2095 212.011C13.6025 214.182 12.793 217.5 12.2872 216.535C13.8048 220.577 10.8707 223.291 13.1977 229.022C12.4895 229.264 13.0966 233.366 11.3766 232.461C11.8825 237.709 12.5907 231.194 13.4001 231.676L12.793 231.556ZM27.2612 441.906L25.1365 436.476C25.5412 435.572 26.3506 434.787 26.9576 435.21C26.9576 437.442 27.16 439.674 27.2612 441.906ZM600.523 483.167C599.308 483.469 604.772 483.529 608.212 483.71C605.379 483.77 601.838 483.891 598.196 484.012C597.386 483.65 598.195 483.228 600.523 483.167ZM585.043 484.374C582.614 484.434 580.591 484.494 579.377 484.555C580.591 484.555 582.21 484.494 585.043 484.374ZM20.0777 47.447C19.8753 48.9551 19.7742 50.5235 19.5718 52.0316C18.8636 51.73 18.4589 50.5235 18.3577 47.5676C18.8636 47.447 19.5718 47.266 20.0777 47.5073V47.447ZM21.7977 326.807C21.7977 328.677 21.7977 330.547 21.7977 332.357C21.2918 331.995 20.7859 331.03 20.0777 328.677L21.6965 326.747L21.7977 326.807Z" fill="black"/>
<path d="M12.793 231.556C15.0189 239.7 14.1083 322.404 17.4471 334.046C18.8636 343.397 20.8871 345.749 22.3036 353.471C22.3036 354.255 26.6541 426.704 26.6541 427.488C25.6424 429.238 20.0777 352.686 20.0777 352.686C19.2683 357.754 23.8212 433.34 24.833 438.105C24.2259 437.14 23.72 438.105 23.0118 439.613C23.3153 443.474 25.5412 442.147 24.833 447.214C24.0235 446.37 22.8094 445.284 22 443.414C22.8094 447.938 24.3271 452.402 25.2377 457.047C24.1247 458.314 23.3153 454.272 22.4047 452.583C23.2141 457.831 24.2259 466.216 26.2494 467.785L26.5529 465.251C26.1482 465.915 25.0353 465.13 24.7318 464.044C23.0118 459.581 25.0353 457.53 25.6424 457.228L26.2494 460.546C29.9929 457.047 24.833 447.154 24.833 440.398L27.2612 442.69C27.767 453.548 28.3741 464.346 29.1835 475.204C39.807 475.446 50.3292 475.928 60.6491 476.471C61.0538 476.471 61.4585 476.471 61.7621 476.532C61.0538 477.135 60.1433 477.738 59.9409 478.341C59.2327 478.16 58.3221 478.04 56.7033 478.04L53.4657 479.246H60.2444V479.125C61.155 479.97 64.2915 480.875 72.082 482.021L84.6278 481.719L88.3713 482.926L78.0514 482.202C83.7172 483.469 87.5619 482.986 91.9124 482.805C92.823 483.348 94.4418 483.831 96.87 484.253L109.315 483.469C110.63 484.313 103.548 484.494 111.541 485.58C117.409 485.218 106.482 483.469 115.992 483.71C121.658 485.098 119.837 485.64 126.919 485.52C127.729 486.063 126.211 486.304 123.479 486.244C129.752 486.244 139.87 487.39 143.31 486.666C149.178 488.234 164.253 488.053 163.342 489.803C165.366 489.501 174.573 489.2 180.34 489.501C169.413 491.07 201.789 490.889 198.754 493C206.848 491.492 227.387 493 241.349 491.552C240.54 491.733 239.022 492.095 237.808 491.975C245.699 491.975 248.027 492.517 253.085 492.698C253.996 491.07 266.238 490.104 272.511 488.536C282.426 489.26 267.149 490.889 270.487 492.095C269.779 490.889 286.878 489.32 283.236 488.536C290.723 488.717 289.61 488.355 293.758 489.2C294.365 487.088 300.334 488.053 305.798 486.123C316.421 485.761 309.137 487.631 320.165 485.58C325.729 485.46 316.017 487.511 316.017 487.511C327.449 486.063 320.873 485.339 322.998 484.193C336.454 482.021 329.675 484.494 334.532 484.675C342.828 483.228 348.797 481.116 355.172 480.573C355.677 480.754 356.993 480.754 355.576 481.176C364.176 479.005 381.983 478.824 392.303 477.074C393.112 477.195 393.517 477.316 393.719 477.436C391.999 476.713 391.595 475.989 391.898 475.385C397.058 475.204 401.51 474.239 403.432 475.204C400.296 475.204 399.992 475.627 398.475 475.928L403.938 475.446C408.896 476.833 396.552 475.989 396.654 477.074C407.075 476.351 419.519 475.325 427.613 475.989C429.232 477.376 408.592 476.109 419.418 477.497C415.27 477.255 411.122 477.074 406.973 476.894C416.484 479.065 399.385 476.773 408.188 479.065C424.477 479.548 426.5 478.522 442.891 479.548C446.634 478.945 441.778 478.341 445.623 477.738C469.298 477.557 463.429 482.202 481.034 481.538C485.688 480.935 487.712 479.306 499.853 481.056L495.401 482.323C511.488 483.589 505.013 480.694 521.606 482.926C518.469 483.348 508.857 482.564 511.286 482.926C522.01 484.917 519.177 482.564 527.575 483.167L529.092 484.675C546.292 485.821 566.022 485.279 585.245 484.675C584.233 485.098 580.894 485.58 585.447 485.942C609.73 484.977 637.35 483.891 660.722 482.986L669.322 481.116C671.346 480.935 673.268 481.358 671.042 481.78C680.148 481.478 671.346 480.996 675.595 480.151C680.654 479.668 682.475 480.272 679.338 480.935C694.92 478.583 723.856 474.963 740.651 475.204L737.514 475.747C750.465 475.385 751.679 472.309 763.82 472.852L761.594 473.153C789.721 472.249 820.58 471.163 841.928 474.662C846.278 473.153 869.751 477.135 871.876 474.843C887.862 477.014 883.207 477.195 905.77 479.367C911.84 479.789 915.078 478.341 922.666 478.462V479.729L933.087 478.884L938.348 480.634H945.532C942.699 480.392 939.562 479.789 940.068 479.427C951.197 479.306 967.082 481.177 967.386 481.84C976.188 481.719 985.091 481.418 993.894 481.116C993.489 481.478 990.858 481.659 988.228 481.84C997.839 481.237 988.936 483.348 1000.98 482.202C999.256 481.9 1001.89 481.418 1002.19 481.176C1008.67 481.9 1023.44 481.719 1034.26 480.935L1032.24 481.9C1042.15 481.659 1052.47 480.996 1063.2 480.03C1073.92 479.065 1084.65 477.798 1095.37 476.713C1087.58 477.074 1088.9 475.446 1095.17 474.662L1098.1 475.747C1101.95 474.541 1091.43 475.928 1099.42 474.058C1107.41 473.395 1105.19 475.023 1100.74 475.928L1110.25 474.541C1110.95 474.903 1108.73 475.325 1108.22 475.868C1111.97 474.662 1125.02 475.747 1130.28 474.058L1130.89 474.42C1141.31 473.877 1148.69 473.757 1155.57 473.877C1158.41 473.877 1162.25 474.179 1165.59 474.36C1168.93 474.541 1172.27 474.722 1175.71 474.903C1176.92 475.204 1176.52 474.36 1176.62 473.877V472.249C1176.82 471.163 1176.92 470.077 1177.02 468.991C1177.22 466.819 1177.43 464.527 1177.63 462.054C1175.71 461.752 1176.62 457.65 1175.3 454.453C1176.72 446.732 1179.05 438.105 1179.55 428.755C1179.05 422.119 1178.03 426.764 1177.12 423.808C1178.94 423.386 1179.35 413.976 1180.36 418.862C1180.66 407.581 1176.62 332.659 1175.3 318.422C1174.59 319.991 1174.19 321.74 1173.68 320.835C1173.38 318.241 1174.49 314.924 1175.3 315.346L1175.5 316.009C1172.87 300.024 1175.5 207.245 1170.85 194.577L1171.05 195.301L1168.02 182.15C1167.71 176.058 1169.74 185.77 1170.34 181.246C1165.99 167.13 1168.32 158.684 1164.48 147.042C1168.32 137.631 1153.95 43.164 1152.64 30.6166L1151.73 31.4611C1150.51 29.8927 1150.51 29.1688 1150.41 27.902C1150.21 26.3336 1150.41 24.8255 1149.3 22.7744C1149 23.6793 1150.72 29.0481 1148.89 25.7906C1148.69 25.0668 1148.19 24.4635 1147.88 23.8L1147.38 22.8348C1147.38 22.8348 1146.37 22.4728 1145.86 22.2919C1143.73 21.6886 1141.51 21.0251 1139.38 20.4218C1138.27 20.1805 1136.96 20.0599 1135.74 19.8186L1133.01 19.4566L1128.15 19.155C1121.68 18.8534 1115.61 19.0344 1109.64 19.336C1097.7 19.9392 1086.06 20.9044 1074.43 21.8093C1062.9 22.7141 1051.26 23.6793 1040.23 24.1619C1037.4 24.3429 1034.87 24.2825 1032.14 24.3429C1029.51 24.3429 1027.48 24.2825 1024.35 24.1016C1018.38 23.8603 1012.51 23.6793 1006.64 23.5587C989.442 23.438 997.03 27.2987 975.48 26.0319L981.449 24.5238C947.151 26.9368 911.233 27.7813 878.452 32.3056C880.273 31.823 880.273 31.4008 883.511 31.0992C879.767 30.9785 873.697 31.4008 868.335 32.0643C862.972 32.7279 858.419 33.2105 858.419 33.6931C853.361 33.8137 857.205 33.0295 854.069 32.7279C847.29 32.366 836.97 34.417 833.328 33.3311C832.721 33.1502 835.25 33.0295 836.464 32.9692C834.238 33.2105 829.078 33.0899 824.93 33.0899C820.782 33.0899 817.747 33.0899 819.871 33.6931C807.73 32.8486 796.399 33.1502 786.787 31.823C780.109 32.6676 765.945 29.5911 763.517 31.1595C764.832 29.4101 742.371 27.721 734.277 27.902C737.009 27.6004 727.599 26.6955 730.837 26.2129C721.832 25.4287 713.536 25.0668 714.851 26.2129C698.764 22.5935 681.058 25.6097 672.054 22.3522C658.294 22.3522 645.445 22.5332 632.899 22.5935C620.353 22.5935 608.111 22.6538 596.071 22.7141C597.083 20.8441 622.68 23.0761 621.769 21.0854C598.904 21.387 585.65 22.7141 562.986 21.8696C557.118 21.5076 566.325 21.1457 568.349 20.8441C545.483 21.206 524.236 19.9995 503.799 20.8441C503.799 20.6631 506.024 20.4821 508.149 20.3615C504.102 20.3615 498.841 19.9995 499.246 20.8441L503.192 20.6631C509.566 21.9299 487.206 23.0761 486.498 23.7396C493.377 21.387 466.465 23.0157 477.291 19.9995C474.66 20.1202 471.321 20.5425 471.928 21.0854C467.982 20.9044 466.768 20.5425 470.714 19.9392C456.347 20.3615 461.406 21.2663 448.455 21.2663C448.455 20.8441 451.086 20.7234 452.503 20.2408C445.926 21.0251 439.35 21.8093 428.322 21.568C428.827 21.387 428.119 21.0854 429.637 21.0251C411.425 21.3267 398.272 23.438 378.037 23.3174C384.007 21.3267 370.955 22.9554 369.741 21.4473L358.611 22.2919L363.164 22.8951C353.452 23.257 344.953 24.7048 336.555 24.5842L343.739 23.619L325.527 24.7651L335.948 24.8858C326.235 26.1526 337.263 26.7558 324.313 26.9368C326.944 26.6352 314.6 27.3591 309.44 26.7558C304.685 27.4797 299.828 28.2036 292.645 28.2036C290.723 27.7813 293.859 26.4542 292.645 26.1526C288.092 27.6607 269.982 27.6004 264.215 29.2894C266.137 28.8672 266.137 28.083 265.53 27.9623L261.685 29.1688C257.132 29.0481 256.424 28.9275 257.132 28.2639C243.575 28.6862 261.685 30.0133 245.497 29.8927C246.711 29.772 246.104 29.6514 248.735 29.3498C232.547 29.5911 217.674 31.2801 202.801 31.1595C198.349 29.772 215.65 30.4356 210.591 29.2291C189.345 30.1943 166.58 31.9437 145.94 31.1595L149.785 31.4008C146.75 33.5724 134.507 30.0133 123.985 30.6769C126.515 30.6166 127.425 29.5911 126.717 29.772C112.653 28.9878 97.6794 29.2291 76.0278 29.5911L78.7596 29.0481C70.362 28.3846 56.6021 28.6259 47.4963 28.5052C44.8657 29.1085 39.6046 29.1085 42.8422 29.8927C39.3011 29.5307 35.8611 29.3498 32.4211 29.2894C27.9694 29.2894 22.9106 29.2894 18.2565 29.4101C17.6495 32.004 17.6495 34.9599 17.346 37.6142C17.346 39.6048 17.346 41.5352 17.2448 43.4656C17.2448 51.1871 17.4471 58.6672 14.513 65.9664C14.6142 64.217 14.1083 61.7438 13.906 63.1312L13.6025 75.7389C15.3224 74.7737 14.7154 74.1102 16.233 71.5162C17.0424 73.145 17.4471 76.7041 17.2448 79.7806C16.6377 74.1102 14.7154 79.7806 13.6025 82.1936C14.1083 81.7713 14.6142 82.6762 15.1201 82.4349C11.7813 88.8896 18.2565 83.6414 15.626 92.509L14.8166 92.0264C15.0189 95.4045 20.1789 170.206 19.673 173.826C17.7507 175.274 19.0659 170.267 17.5483 169.965C17.346 175.032 20.3812 180.039 18.3577 184.624C17.953 182.452 18.1554 179.376 17.7507 177.204C15.3224 182.15 15.8283 182.754 15.3224 186.494V186.132L14.0072 194.698L14.7154 192.526C19.2683 198.981 15.0189 205.496 17.953 214.062C15.2213 205.737 16.233 212.674 14.2095 212.011C13.6025 214.182 12.793 217.5 12.2872 216.535C13.8048 220.577 10.8707 223.291 13.1977 229.022C12.4895 229.264 13.0966 233.366 11.3766 232.461C11.8825 237.709 12.5907 231.194 13.4001 231.676L12.793 231.556ZM27.2612 441.906L25.1365 436.476C25.5412 435.572 26.3506 434.787 26.9576 435.21C26.9576 437.442 27.16 439.674 27.2612 441.906ZM600.523 483.167C599.308 483.469 604.772 483.529 608.212 483.71C605.379 483.77 601.838 483.891 598.196 484.012C597.386 483.65 598.195 483.228 600.523 483.167ZM585.043 484.374C582.614 484.434 580.591 484.494 579.377 484.555C580.591 484.555 582.21 484.494 585.043 484.374ZM20.0777 47.447C19.8753 48.9551 19.7742 50.5235 19.5718 52.0316C18.8636 51.73 18.4589 50.5235 18.3577 47.5676C18.8636 47.447 19.5718 47.266 20.0777 47.5073V47.447ZM21.7977 326.807C21.7977 328.677 21.7977 330.547 21.7977 332.357C21.2918 331.995 20.7859 331.03 20.0777 328.677L21.6965 326.747L21.7977 326.807Z" stroke="black" stroke-width="18" mask="url(#path-1-outside-1_14_2)"/>
</svg>
