<svg width="13" height="16" viewBox="0 0 13 16" fill="none" xmlns="http://www.w3.org/2000/svg">
<path d="M5.885 15.6001L5.693 15.4675C4.73208 14.7817 3.83917 14.0017 3.027 13.1387C1.6 11.6136 0 9.32764 0 6.62952C0 3.31017 2.641 0 6.5 0C10.359 0 13 3.31017 13 6.63054C13 9.32866 11.4 11.6147 9.973 13.1376C9.16083 14.0007 8.26792 14.7807 7.307 15.4665C7.22567 15.5243 7.16167 15.5685 7.115 15.5991C6.912 15.7368 6.705 15.8674 6.5 16C6.295 15.8674 6.088 15.7368 5.885 15.6001ZM6.5 8.6707C7.03043 8.6707 7.53914 8.45576 7.91421 8.07315C8.28929 7.69055 8.5 7.17162 8.5 6.63054C8.5 6.08945 8.28929 5.57053 7.91421 5.18792C7.53914 4.80532 7.03043 4.59037 6.5 4.59037C5.96957 4.59037 5.46086 4.80532 5.08579 5.18792C4.71071 5.57053 4.5 6.08945 4.5 6.63054C4.5 7.17162 4.71071 7.69055 5.08579 8.07315C5.46086 8.45576 5.96957 8.6707 6.5 8.6707Z" fill="#8A8A8A"/>
</svg>
