<svg xmlns="http://www.w3.org/2000/svg" width="202.981" height="197.765" viewBox="0 0 202.981 197.765">
  <defs>
    <style>
      .cls-1 {
        fill: #009eb9;
      }
    </style>
  </defs>
  <g id="グループ_65560" data-name="グループ 65560" transform="translate(-598.51 -255.125)">
    <g id="グループ_65396" data-name="グループ 65396" transform="translate(541.539 255.125)">
      <g id="グループ_65393" data-name="グループ 65393">
        <g id="グループ_65391" data-name="グループ 65391" transform="translate(92.929)">
          <path id="パス_87885" data-name="パス 87885" class="cls-1" d="M182.885,20.866c.852,0,1.755,0,2.672-.017,2.759.013,5.857.269,7.671,2.11a7.27,7.27,0,0,1,1.763,3.455c.015.063.039.122.053.184.09.4.156.815.213,1.23.009.063.024.125.032.187a30.083,30.083,0,0,1,.175,3.732c-.005.629,0,1.246-.005,1.831,0,.017.011.027.012.044,0,.082,0,.171,0,.252s.056.122.12.168a1.214,1.214,0,0,0,.972.524c1.023.1,1.206-.461,1.2-1.322,0-.945.014-1.984-.006-3.054.037-2.664.324-5.549,1.941-7.407a4.985,4.985,0,0,1,3.022-1.481,32.153,32.153,0,0,1,6.355-.435,2.483,2.483,0,0,0,2.266-1.013c.349-.711-.3-1.272-1.007-1.273-.851,0-1.754,0-2.671.017-2.759-.013-5.857-.269-7.671-2.11a7.27,7.27,0,0,1-1.764-3.46c-.015-.061-.037-.117-.051-.178-.093-.41-.16-.833-.218-1.258-.008-.053-.019-.1-.027-.159a29.991,29.991,0,0,1-.175-3.739c0-.627,0-1.243.005-1.825,0-.017-.012-.027-.013-.044V5.572c0-.073-.057-.124-.123-.171-.62-1.036-2.171-.421-2.173.8,0,.945-.015,1.984.005,3.055-.037,2.663-.324,5.549-1.94,7.406a4.981,4.981,0,0,1-3.023,1.48,32.073,32.073,0,0,1-6.355.436,2.483,2.483,0,0,0-2.266,1.013C181.529,20.3,182.183,20.864,182.885,20.866Z" transform="translate(-88.794 0.111)"/>
          <path id="パス_87886" data-name="パス 87886" class="cls-1" d="M215.463,37.086a1.355,1.355,0,0,0-2.441,1.178A62.179,62.179,0,0,1,219.2,64.171c.611,29.983-20.476,56.875-49.865,62.846a63.956,63.956,0,0,1-19.7.92,2.723,2.723,0,0,1-1.284-.56,1.775,1.775,0,0,1-.538-1.09c-.06-.6-.116-1.2-.156-1.787a3.479,3.479,0,0,1,.355-1.743,1.551,1.551,0,0,1,1-.738c14.961-.61,19.872-14.665,19.92-14.818a1.158,1.158,0,0,0-1.052-1.527c-10.326-.389-16.257,4.682-19.422,8.994a.556.556,0,0,1-.99-.372,61.386,61.386,0,0,1,10.2-32.05.658.658,0,0,1,.878-.184,13.591,13.591,0,0,0,4.749,1.631,1.031,1.031,0,0,1,.676.406c2.418,3.105,8.292,5.335,12.942,6.119a14.745,14.745,0,0,0,2.478.212c3.414,0,6.4-1.219,7.557-3.237a4.008,4.008,0,0,0-.653-4.727,4.7,4.7,0,0,0-.673-.648.482.482,0,0,1,.061-.806c3.119-1.672,6.183-4.795,5.109-9.716a6.855,6.855,0,0,0-4.787-5.186,14.52,14.52,0,0,0-7.187-.23.43.43,0,0,1-.436-.686c1.627-1.935,3-4.232,3.1-6.595a6.787,6.787,0,0,0-2.852-5.708,7.019,7.019,0,0,0-6.08-1.537c-2.881.614-5.6,2.919-7.843,5.487a.3.3,0,0,1-.515-.256c.568-2.875.717-5.858-.258-8.053a5.51,5.51,0,0,0-3.552-3.15c-2.456-.756-5.273.487-7.36,3.237-2.965,3.912-4.647,11.255.373,19.067.011.016.03.023.041.038a11.366,11.366,0,0,0,.9,10.317,12.3,12.3,0,0,0,1.32,1.666,1.071,1.071,0,0,1,.263.6,1.424,1.424,0,0,1-.21.707,61.714,61.714,0,0,0-7.631,16.075c-.08.257-.28.654-.535.7s-.574-.274-.7-.5a38.07,38.07,0,0,0-8.483-10.3,3.923,3.923,0,0,1-1.417-2.889,31.811,31.811,0,0,1-.008-3.985c.516-3.946-.838-7.737-3.222-9.017a3.236,3.236,0,0,0-3.8.464,3.6,3.6,0,0,0-1.147,2.685.3.3,0,0,1-.46.24,5.582,5.582,0,0,0-2.477-.971,3.258,3.258,0,0,0-2.614.879,3.434,3.434,0,0,0-.98,3.474,6.349,6.349,0,0,0,1.3,2.411.3.3,0,0,1-.206.486,5.257,5.257,0,0,0-2.379.756,3.168,3.168,0,0,0-1.417,2.255,3.456,3.456,0,0,0,.905,3.071c.952.958,2.552,1.426,4.934,1.426a27.965,27.965,0,0,0,3.766-.295c1.226-.165,3.378-.244,4.926-.283a3.841,3.841,0,0,1,2.479.8c1.99,1.54,5.936,5.192,9.542,12.1a5.264,5.264,0,0,1,.492,1.149,2.751,2.751,0,0,1,.029,1.122,78.01,78.01,0,0,0-1.1,23.331.9.9,0,0,1-1.046.971A62.885,62.885,0,0,1,93.622,65.25,62.875,62.875,0,0,1,149.228,3.094a63.127,63.127,0,0,1,31.619,4.521,1.356,1.356,0,0,0,1.054-2.5A64.983,64.983,0,0,0,158.041.006s-3.544-.04-5.475.085A73.6,73.6,0,0,0,145.184.9c-30.492,5.087-53.151,31.73-54.217,62.4,0,.125-.105,2.414-.105,3.847v60.865a1.355,1.355,0,1,0,2.709,0V90.715a1.143,1.143,0,0,1,2.21-.411A65.588,65.588,0,0,0,167.6,130.1c31.49-5.254,54.7-33.485,54.317-65.409A64.892,64.892,0,0,0,215.463,37.086Zm-50.8,73.469a19.349,19.349,0,0,1-13.51,8.848.311.311,0,0,1-.219-.566l13.3-8.711A.308.308,0,0,1,164.664,110.555ZM149.7,116.965a19.609,19.609,0,0,1,13.072-8.564.312.312,0,0,1,.23.565l-12.876,8.43A.309.309,0,0,1,149.7,116.965Zm35.247-30.927c-.819,1.43-3.9,2.527-7.64,1.894a26.091,26.091,0,0,1-9.366-3.428.416.416,0,0,1,.185-.758,14.464,14.464,0,0,0,4.926-1.411A2.717,2.717,0,0,1,174.116,82c2.9-.289,8.5-.336,10.4,1.949C185.482,85.1,185.074,85.808,184.943,86.038Zm.324-17.733a4.586,4.586,0,0,1,3.267,3.486c1.048,4.8-3.318,7.071-5.513,7.889a7.059,7.059,0,0,1-2.507.14,26.546,26.546,0,0,0-5.786-.2,1.773,1.773,0,0,1-1.251-.437,13.834,13.834,0,0,0-3.753-1.74c-.457-.165-.911-.342-1.362-.522a.946.946,0,0,1-.6-.892,6.6,6.6,0,0,0-.2-1.691.96.96,0,0,1,.347-1C173.657,68.985,180.887,66.823,185.267,68.305ZM173.033,53.62a4.7,4.7,0,0,1,4.142,1.075,4.536,4.536,0,0,1,1.991,3.8c-.157,3.927-5.635,8.485-7.733,9.91-.008.005-.006.016-.014.021A31.948,31.948,0,0,0,167,71.148a.946.946,0,0,1-1.265-.122,13.265,13.265,0,0,0-3.991-2.869,1.515,1.515,0,0,1-.809-.889,1.957,1.957,0,0,1,.462-1.578C162.789,63.183,167.84,54.726,173.033,53.62Zm-8.26,21.369a13.264,13.264,0,0,1-2.753-3.247.5.5,0,0,1,0-.449c.089-.115.294-.09.426,0a7.032,7.032,0,0,1,2.712,3.161C165.3,74.833,164.975,75.158,164.774,74.99ZM154.36,64.607c-3.068-6.089-1.775-11.571.51-14.589,1.46-1.922,3.356-2.856,4.832-2.422a3.239,3.239,0,0,1,2.111,1.878c1.235,2.776.051,7.773-1.243,11.537a1.341,1.341,0,0,1-.4.616c-.173.089-.344-.106-.46-.161-1.07-.5-2.138.385-2.6.762a11.462,11.462,0,0,0-2.148,2.41A.353.353,0,0,1,154.36,64.607Zm3.343.271a.653.653,0,0,1,.588-.231c.176.069.247.355.249.535a18.133,18.133,0,0,0,1.146,7.125c.007.018.015.034.025.053a14.139,14.139,0,0,0,6.2,6.088c.94.422,2.011.811,3.025,1.18.392.143.853.31,1.3.482a.456.456,0,0,1-.042.864,15.9,15.9,0,0,1-6.166.488,10.4,10.4,0,0,1-7.752-4.7C153.621,72.716,155.3,67.59,157.7,64.878Zm-29.735,20.5a.417.417,0,0,1-.378.439c-3.815.379-5.1-.194-5.509-.607a1.187,1.187,0,0,1-.257-1.113.861.861,0,0,1,.406-.649c1.081-.717,3.776-.4,5.219-.023a.849.849,0,0,1,.413.171.625.625,0,0,1,.13.46A6.367,6.367,0,0,0,127.968,85.378Zm1.974-5a4.915,4.915,0,0,0-.531.507,2.423,2.423,0,0,0-.163.2.592.592,0,0,1-.3.245.825.825,0,0,1-.464-.079c-2.066-.907-3.686-2.619-4-3.931a1.123,1.123,0,0,1,.292-1.226.958.958,0,0,1,.831-.283c1.354.125,3.287,2.067,4.189,3.267.011.015.155.249.286.5a.84.84,0,0,1,.08.447A.621.621,0,0,1,129.942,80.382Zm3.819,5c-.779.02-1.679.053-2.545.1a.9.9,0,0,1-.953-.928,3.327,3.327,0,0,1,.875-2.117,3.16,3.16,0,0,1,2.6-.991.893.893,0,0,1,.835.886c.011.71.037,1.446.066,2.107A.9.9,0,0,1,133.761,85.381Zm.2-6.235a6.539,6.539,0,0,0-1.008.007.671.671,0,0,1-.677-.364c-.977-2.069-1.706-4.734-.845-5.482a.936.936,0,0,1,1.186-.174c1.114.6,2.071,2.723,2.061,5.346A.668.668,0,0,1,133.961,79.146Z" transform="translate(-90.862 0)"/>
        </g>
      </g>
    </g>
    <g id="グループ_65420" data-name="グループ 65420" transform="translate(598.51 303.135)">
      <g id="グループ_65417" data-name="グループ 65417">
        <g id="グループ_65416" data-name="グループ 65416" transform="translate(0 100.477)">
          <path id="パス_87951" data-name="パス 87951" class="cls-1" d="M234.333,173.976a6.735,6.735,0,1,0,6.735,6.735A6.742,6.742,0,0,0,234.333,173.976Zm0,12.238a5.5,5.5,0,1,1,5.5-5.5A5.507,5.507,0,0,1,234.333,186.214Z" transform="translate(-78.512 -160.491)"/>
          <path id="パス_87952" data-name="パス 87952" class="cls-1" d="M296.045,173.976a6.735,6.735,0,1,0,6.736,6.735A6.742,6.742,0,0,0,296.045,173.976Zm0,12.238a5.5,5.5,0,1,1,5.5-5.5A5.508,5.508,0,0,1,296.045,186.214Z" transform="translate(-99.8 -160.491)"/>
          <path id="パス_87953" data-name="パス 87953" class="cls-1" d="M154.009,173.976a6.735,6.735,0,1,0,5.214,10.978.17.17,0,0,1,.214-.065c.09.043.074.184.074.184v1.757a.617.617,0,0,0,1.233,0v-6.119A6.743,6.743,0,0,0,154.009,173.976Zm0,12.238a5.5,5.5,0,1,1,5.5-5.5A5.509,5.509,0,0,1,154.009,186.214Z" transform="translate(-50.803 -160.491)"/>
          <path id="パス_87954" data-name="パス 87954" class="cls-1" d="M202.46,174.05a6.662,6.662,0,0,0-3.932,2.12,6.768,6.768,0,0,0-1.785,4.877V191.83a.616.616,0,1,0,1.233,0v-6.368a.315.315,0,0,1,.559-.2,6.731,6.731,0,0,0,6.864,1.912,6.635,6.635,0,0,0,4.532-4.488A6.751,6.751,0,0,0,202.46,174.05Zm1.019,12.162a5.5,5.5,0,1,1,5.5-5.5A5.508,5.508,0,0,1,203.478,186.212Z" transform="translate(-67.868 -160.489)"/>
          <path id="パス_87955" data-name="パス 87955" class="cls-1" d="M265.689,175.209a5.473,5.473,0,0,1,4.912,3.034.617.617,0,0,0,1.1-.555,6.736,6.736,0,1,0,0,6.044.617.617,0,0,0-1.1-.555,5.5,5.5,0,1,1-4.912-7.969Z" transform="translate(-89.328 -160.491)"/>
          <path id="パス_87956" data-name="パス 87956" class="cls-1" d="M47.243,173.976a6.735,6.735,0,1,0,6.735,6.735A6.743,6.743,0,0,0,47.243,173.976Zm0,12.238a5.5,5.5,0,1,1,5.5-5.5A5.509,5.509,0,0,1,47.243,186.214Z" transform="translate(-13.973 -160.491)"/>
          <path id="パス_87957" data-name="パス 87957" class="cls-1" d="M108.955,173.976a6.735,6.735,0,1,0,6.735,6.735A6.743,6.743,0,0,0,108.955,173.976Zm0,12.238a5.5,5.5,0,1,1,5.5-5.5A5.508,5.508,0,0,1,108.955,186.214Z" transform="translate(-35.261 -160.491)"/>
          <path id="パス_87958" data-name="パス 87958" class="cls-1" d="M10.424,153.391s-.126,0-.307,0c-.138,0-.331.008-.383.011a10.67,10.67,0,0,0-1.8.257A10.377,10.377,0,0,0,.28,161.342,10.925,10.925,0,0,0,0,164.04l.01,0c0,.086-.012.172-.012.259v15.432a.616.616,0,0,0,1.233,0v-9.987a.31.31,0,0,1,.577-.159,10.4,10.4,0,1,0,8.614-16.193Zm0,19.6A9.123,9.123,0,0,1,1.4,162.108c.016-.086.029-.172.047-.257a9.068,9.068,0,0,1,.466-1.5c.018-.046.028-.1.047-.141a9.185,9.185,0,0,1,.822-1.512c.039-.058.087-.108.128-.166a9.282,9.282,0,0,1,.93-1.126c.093-.1.195-.181.291-.273a9.339,9.339,0,0,1,.992-.819c.119-.083.239-.163.361-.241a9.278,9.278,0,0,1,1.142-.621c.12-.054.237-.113.36-.162a9.069,9.069,0,0,1,1.417-.441c.073-.017.143-.042.216-.057a9.189,9.189,0,1,1,1.8,18.2Z" transform="translate(0 -153.39)"/>
          <path id="パス_87959" data-name="パス 87959" class="cls-1" d="M78.6,175.209a5.473,5.473,0,0,1,4.911,3.034.617.617,0,0,0,1.1-.555,6.736,6.736,0,1,0,0,6.044.616.616,0,0,0-.274-.827.61.61,0,0,0-.828.273,5.5,5.5,0,1,1-4.911-7.969Z" transform="translate(-24.79 -160.491)"/>
        </g>
      </g>
      <g id="グループ_65419" data-name="グループ 65419" transform="translate(71.52 141.457)">
        <g id="グループ_65418" data-name="グループ 65418" transform="translate(0 0)">
          <path id="パス_87960" data-name="パス 87960" class="cls-1" d="M111.831,220.869c0,.058-.069.079-.119.1-.168.04-.188.05-.317.219-.208.278-1.368,1.626-1.656,1.626-.148,0-.555-.357-.555-.516,0-.089.148-.179.218-.228a5.782,5.782,0,0,0,1.368-1.5c.06-.109.109-.208.189-.208S111.831,220.72,111.831,220.869Zm.753-2.321a.279.279,0,0,0,.278-.307v-.169c0-.406-.02-.8-.049-1.209,0-.039-.01-.079-.01-.119,0-.1.079-.13.168-.13a4.3,4.3,0,0,1,.595.08c.168.02.347.029.347.138,0,.05-.039.08-.069.109-.128.129-.139.168-.139.585v.714a.278.278,0,0,0,.267.307h1.7c.417,0,.833-.02,1.239-.02.248,0,.248.109.248.446,0,.287-.01.406-.248.406-.416,0-.823-.029-1.239-.029h-1.685a.286.286,0,0,0-.278.288v3.033c0,.526.01.962-.526,1.23a2.612,2.612,0,0,1-.941.259c-.288,0-.466-.595-.466-.695,0-.168.227-.148.357-.159.772-.049.733-.436.733-1.18V219.64a.288.288,0,0,0-.288-.288h-1.645c-.407,0-.814.029-1.22.029-.238,0-.238-.159-.238-.416,0-.288-.01-.446.238-.446.337,0,.8.029,1.22.029Zm3.9,2.657c.159.159.863.843.863,1.022s-.407.525-.545.525c-.109,0-.189-.119-.248-.2a9.4,9.4,0,0,0-1.468-1.487c-.069-.06-.168-.129-.168-.228,0-.129.317-.506.485-.506C115.609,220.333,116.3,221.037,116.481,221.205Zm1.328-4.292a.969.969,0,0,1-.961.961.961.961,0,1,1,0-1.923A.969.969,0,0,1,117.81,216.913Zm-1.5,0a.535.535,0,1,0,.536-.536A.534.534,0,0,0,116.312,216.913Z" transform="translate(-109.184 -215.951)"/>
          <path id="パス_87961" data-name="パス 87961" class="cls-1" d="M131.7,218.735c.248,0,.5-.02.744-.02.406,0,.6.069.6.506,0,.278-.01.555-.01.843V223.4c0,.3.02.595.02.843,0,.307-.089.307-.505.307-.368,0-.377-.04-.407-.228-.04-.229-.179-.229-.447-.229h-3.371c-.3,0-.7,0-.981.02-.079,0-.159.01-.248.01-.228,0-.228-.119-.228-.446s0-.436.228-.436.774.029,1.22.029H131.9a.288.288,0,0,0,.288-.288v-3.133a.288.288,0,0,0-.288-.288h-3.579c-.446,0-1.011.029-1.23.029-.2,0-.218-.139-.218-.476s.04-.407.208-.407c.238,0,.754.03,1.23.03Z" transform="translate(-115.285 -216.901)"/>
          <path id="パス_87962" data-name="パス 87962" class="cls-1" d="M155.162,218.286a7.772,7.772,0,0,0,.962-.039.323.323,0,0,1,.1-.01c.149,0,.228.119.357.267a.949.949,0,0,1,.257.466c0,.109-.129.2-.218.268-.109.089-.754.754-.9.9-.4.407-.793.813-1.22,1.19a.357.357,0,0,1-.227.129c-.169,0-.575-.338-.575-.486,0-.079.159-.2.228-.268a14.315,14.315,0,0,0,1.507-1.477c0-.139-.208-.119-.308-.119H150.5c-.426,0-.853.02-1.279.02-.238,0-.238-.139-.238-.417,0-.307-.009-.446.229-.446.436,0,.863.02,1.289.02Zm-1.9,1.368c.069.01.168.02.168.119,0,.05-.04.079-.069.109-.109.1-.119.2-.159.456l-.029.2a6.032,6.032,0,0,1-2.39,4.352.6.6,0,0,1-.3.149c-.138,0-.614-.367-.614-.536,0-.079.1-.139.218-.218a5.111,5.111,0,0,0,2.261-4.442v-.168c0-.079.02-.109.1-.109C152.544,219.564,153.149,219.634,153.258,219.654Z" transform="translate(-122.913 -216.739)"/>
          <path id="パス_87963" data-name="パス 87963" class="cls-1" d="M174.6,220.869c0,.058-.069.079-.119.1-.169.04-.189.05-.318.219-.208.278-1.369,1.626-1.656,1.626-.149,0-.555-.357-.555-.516,0-.089.149-.179.218-.228a5.8,5.8,0,0,0,1.368-1.5c.06-.109.109-.208.189-.208S174.6,220.72,174.6,220.869Zm.754-2.321a.279.279,0,0,0,.277-.307v-.169c0-.406-.02-.8-.05-1.209,0-.039-.01-.079-.01-.119,0-.1.079-.13.168-.13a4.307,4.307,0,0,1,.6.08c.168.02.346.029.346.138,0,.05-.04.08-.069.109-.129.129-.138.168-.138.585v.714a.277.277,0,0,0,.268.307h1.7c.416,0,.833-.02,1.239-.02.248,0,.248.109.248.446,0,.287-.01.406-.248.406-.417,0-.823-.029-1.239-.029h-1.686a.286.286,0,0,0-.277.288v3.033c0,.526.009.962-.525,1.23a2.617,2.617,0,0,1-.943.259c-.287,0-.466-.595-.466-.695,0-.168.229-.148.357-.159.774-.049.734-.436.734-1.18V219.64a.288.288,0,0,0-.288-.288h-1.646c-.406,0-.813.029-1.22.029-.238,0-.238-.159-.238-.416,0-.288-.01-.446.238-.446.338,0,.8.029,1.22.029Zm3.9,2.657c.158.159.863.843.863,1.022s-.407.525-.546.525c-.109,0-.189-.119-.248-.2a9.487,9.487,0,0,0-1.467-1.487c-.069-.06-.169-.129-.169-.228,0-.129.318-.506.486-.506C178.373,220.333,179.067,221.037,179.246,221.205Zm1.328-4.292a.969.969,0,0,1-.962.961.961.961,0,0,1,0-1.923A.969.969,0,0,1,180.574,216.913Zm-1.5,0a.535.535,0,1,0,.534-.536A.533.533,0,0,0,179.077,216.913Z" transform="translate(-130.835 -215.951)"/>
          <path id="パス_87964" data-name="パス 87964" class="cls-1" d="M194.463,218.735c.248,0,.5-.02.743-.02.407,0,.6.069.6.506,0,.278-.01.555-.01.843V223.4c0,.3.02.595.02.843,0,.307-.089.307-.506.307-.367,0-.377-.04-.407-.228-.039-.229-.178-.229-.445-.229h-3.372c-.3,0-.7,0-.982.02-.079,0-.159.01-.248.01-.228,0-.228-.119-.228-.446s0-.436.228-.436.773.029,1.22.029h3.58a.287.287,0,0,0,.287-.288v-3.133a.287.287,0,0,0-.287-.288h-3.58c-.447,0-1.011.029-1.229.029-.2,0-.218-.139-.218-.476s.039-.407.208-.407c.238,0,.754.03,1.23.03Z" transform="translate(-136.936 -216.901)"/>
        </g>
      </g>
    </g>
  </g>
</svg>
