<svg xmlns="http://www.w3.org/2000/svg" width="262.96" height="70.359" viewBox="0 0 262.96 70.359">
  <defs>
    <style>
      .cls-1 {
        fill: #0093b2;
      }
    </style>
  </defs>
  <g id="グループ_41698" data-name="グループ 41698" transform="translate(-232.99 138.629)">
    <g id="グループ_41697" data-name="グループ 41697" transform="translate(232.99 -138.629)">
      <path id="パス_64566" data-name="パス 64566" class="cls-1" d="M646.764,461.591c.456,0,.942,0,1.435-.009,1.482.007,3.145.144,4.119,1.134a3.917,3.917,0,0,1,.947,1.855c.007.033.019.065.028.1.048.215.083.437.114.66,0,.033.012.067.016.1a16.183,16.183,0,0,1,.095,2c0,.336,0,.669,0,.982,0,.009.007.014.007.023v.136c0,.039.03.065.065.09a.645.645,0,0,0,.521.282c.549.056.648-.248.646-.709,0-.507.009-1.065,0-1.641a6.216,6.216,0,0,1,1.042-3.976,2.67,2.67,0,0,1,1.623-.8,17.151,17.151,0,0,1,3.411-.234,1.33,1.33,0,0,0,1.218-.544c.187-.382-.164-.683-.54-.683-.458,0-.943,0-1.435.009-1.482-.007-3.145-.144-4.119-1.134a3.893,3.893,0,0,1-.947-1.857c-.009-.032-.021-.063-.028-.1-.049-.22-.086-.447-.116-.676l-.016-.084a16.225,16.225,0,0,1-.093-2.008c0-.336,0-.667,0-.98,0-.009-.005-.014-.005-.023,0-.044,0-.092,0-.136a.127.127,0,0,0-.067-.092c-.333-.556-1.165-.227-1.167.431,0,.507-.007,1.065,0,1.639a6.224,6.224,0,0,1-1.042,3.978,2.673,2.673,0,0,1-1.623.794,17.169,17.169,0,0,1-3.413.234,1.329,1.329,0,0,0-1.216.544C646.035,461.29,646.386,461.591,646.764,461.591Z" transform="translate(-596.24 -450.328)"/>
      <path id="パス_64567" data-name="パス 64567" class="cls-1" d="M684.71,471.4a.728.728,0,0,0-1.311.634,33.411,33.411,0,0,1,3.32,13.911,33.848,33.848,0,0,1-26.776,33.746,34.362,34.362,0,0,1-10.577.493,1.456,1.456,0,0,1-.688-.3.944.944,0,0,1-.289-.584c-.033-.322-.062-.644-.084-.959a1.881,1.881,0,0,1,.19-.936.832.832,0,0,1,.539-.4c8.033-.327,10.67-7.875,10.7-7.956a.623.623,0,0,0-.567-.82,11.753,11.753,0,0,0-10.427,4.828.3.3,0,0,1-.532-.2,32.951,32.951,0,0,1,5.476-17.209.353.353,0,0,1,.472-.1,7.279,7.279,0,0,0,2.549.875.557.557,0,0,1,.363.218c1.3,1.667,4.453,2.866,6.949,3.286a7.877,7.877,0,0,0,1.332.113c1.832,0,3.434-.653,4.057-1.737a2.152,2.152,0,0,0-.352-2.538,2.5,2.5,0,0,0-.361-.349.259.259,0,0,1,.033-.433c1.674-.9,3.32-2.573,2.742-5.217a3.682,3.682,0,0,0-2.57-2.785,7.809,7.809,0,0,0-3.86-.123.231.231,0,0,1-.234-.368,6.219,6.219,0,0,0,1.663-3.542,3.643,3.643,0,0,0-1.531-3.064,3.767,3.767,0,0,0-3.265-.826,8.508,8.508,0,0,0-4.212,2.947.159.159,0,0,1-.276-.137,7.561,7.561,0,0,0-.139-4.325,2.957,2.957,0,0,0-1.906-1.691c-1.318-.407-2.832.262-3.952,1.739-1.593,2.1-2.5,6.043.2,10.237.005.009.016.012.021.021a6.1,6.1,0,0,0,.486,5.539,6.37,6.37,0,0,0,.709.894.582.582,0,0,1,.141.32.769.769,0,0,1-.113.38,33.1,33.1,0,0,0-4.1,8.632c-.042.137-.15.35-.287.373s-.308-.148-.378-.268a20.447,20.447,0,0,0-4.555-5.53,2.108,2.108,0,0,1-.76-1.552,17.167,17.167,0,0,1-.005-2.139c.278-2.119-.449-4.156-1.73-4.842a1.74,1.74,0,0,0-2.042.25,1.936,1.936,0,0,0-.614,1.442.16.16,0,0,1-.248.128,3,3,0,0,0-1.329-.521,1.751,1.751,0,0,0-1.4.472,1.841,1.841,0,0,0-.524,1.866,3.381,3.381,0,0,0,.7,1.294.163.163,0,0,1-.111.262,2.821,2.821,0,0,0-1.278.4,1.706,1.706,0,0,0-.76,1.211,1.858,1.858,0,0,0,.486,1.649,3.635,3.635,0,0,0,2.649.766,15,15,0,0,0,2.022-.158c.658-.088,1.815-.132,2.646-.151a2.06,2.06,0,0,1,1.331.43,19.586,19.586,0,0,1,5.124,6.5,2.857,2.857,0,0,1,.264.616,1.489,1.489,0,0,1,.016.6,41.907,41.907,0,0,0-.593,12.529.483.483,0,0,1-.561.521,33.731,33.731,0,1,1,19.542-64.194.728.728,0,0,0,.567-1.341,34.912,34.912,0,0,0-12.813-2.744s-1.9-.021-2.939.046a39.072,39.072,0,0,0-3.964.437,35.287,35.287,0,0,0-29.112,33.5c0,.069-.058,1.3-.058,2.066v32.681a.728.728,0,1,0,1.456,0V500.193a.613.613,0,0,1,1.186-.22A35.181,35.181,0,1,0,684.71,471.4Zm-27.277,39.451a10.4,10.4,0,0,1-7.254,4.751.168.168,0,0,1-.118-.3l7.145-4.677A.165.165,0,0,1,657.433,510.848Zm-8.037,3.441a10.527,10.527,0,0,1,7.02-4.6.167.167,0,0,1,.123.3l-6.914,4.527A.166.166,0,0,1,649.4,514.289Zm18.925-16.606c-.44.767-2.095,1.357-4.1,1.017a14.045,14.045,0,0,1-5.029-1.841.223.223,0,0,1,.1-.407,7.757,7.757,0,0,0,2.646-.759,1.457,1.457,0,0,1,.572-.178c1.56-.155,4.563-.181,5.587,1.046C668.612,497.18,668.391,497.56,668.321,497.683Zm.174-9.523a2.462,2.462,0,0,1,1.755,1.871c.563,2.58-1.781,3.8-2.96,4.237a3.78,3.78,0,0,1-1.345.076,14.319,14.319,0,0,0-3.107-.106.949.949,0,0,1-.672-.234,7.437,7.437,0,0,0-2.015-.935c-.245-.088-.489-.183-.732-.28a.512.512,0,0,1-.324-.479,3.465,3.465,0,0,0-.106-.908.516.516,0,0,1,.187-.535C662.261,488.527,666.144,487.365,668.5,488.161Zm-6.569-7.886a2.53,2.53,0,0,1,2.225.577,2.434,2.434,0,0,1,1.068,2.044c-.085,2.109-3.026,4.555-4.152,5.321l-.007.012a16.966,16.966,0,0,0-2.376,1.459.507.507,0,0,1-.679-.067,7.171,7.171,0,0,0-2.142-1.54.812.812,0,0,1-.435-.477,1.051,1.051,0,0,1,.248-.847C656.426,485.411,659.138,480.87,661.926,480.275Zm-4.436,11.475a7.094,7.094,0,0,1-1.477-1.743.264.264,0,0,1,0-.241c.048-.062.157-.049.229,0a3.782,3.782,0,0,1,1.456,1.7C657.774,491.667,657.6,491.841,657.491,491.75Zm-5.59-5.574a7.406,7.406,0,0,1,.275-7.835,2.64,2.64,0,0,1,2.594-1.3,1.738,1.738,0,0,1,1.134,1.007c.664,1.491.026,4.175-.667,6.2a.74.74,0,0,1-.215.329c-.093.049-.185-.056-.248-.084-.574-.268-1.148.206-1.394.408a6.154,6.154,0,0,0-1.153,1.294A.189.189,0,0,1,651.9,486.175Zm1.8.146a.346.346,0,0,1,.315-.125c.095.037.132.19.134.287a9.711,9.711,0,0,0,.616,3.827l.012.028a7.581,7.581,0,0,0,3.328,3.269c.505.227,1.081.436,1.625.635.211.076.459.165.7.257a.245.245,0,0,1-.023.465,8.537,8.537,0,0,1-3.311.262,5.585,5.585,0,0,1-4.163-2.522C651.5,490.53,652.4,487.777,653.7,486.321Zm-15.967,11.006a.224.224,0,0,1-.2.236c-2.047.2-2.739-.1-2.957-.326a.638.638,0,0,1-.137-.6.463.463,0,0,1,.217-.348,4.575,4.575,0,0,1,2.8-.012.456.456,0,0,1,.222.093.334.334,0,0,1,.069.247A3.464,3.464,0,0,0,637.729,497.328Zm1.06-2.682a2.573,2.573,0,0,0-.285.273,1.2,1.2,0,0,0-.088.109.307.307,0,0,1-.158.132.445.445,0,0,1-.25-.042,3.811,3.811,0,0,1-2.147-2.11.6.6,0,0,1,.157-.658.513.513,0,0,1,.447-.153c.727.067,1.764,1.111,2.25,1.755.005.007.083.134.153.268a.456.456,0,0,1,.042.239A.331.331,0,0,1,638.789,494.645Zm2.051,2.684c-.419.012-.9.028-1.366.055a.482.482,0,0,1-.512-.5,1.784,1.784,0,0,1,.47-1.137,1.691,1.691,0,0,1,1.4-.532.48.48,0,0,1,.449.475c.005.38.019.776.035,1.132A.484.484,0,0,1,640.839,497.329Zm.107-3.348a3.48,3.48,0,0,0-.54.005.364.364,0,0,1-.364-.2c-.524-1.111-.915-2.542-.454-2.943a.5.5,0,0,1,.637-.093,3.372,3.372,0,0,1,1.107,2.871A.359.359,0,0,1,640.947,493.982Z" transform="translate(-617.804 -451.484)"/>
    </g>
    <g id="グループ_41694" data-name="グループ 41694" transform="translate(325 -210.417)">
      <g id="グループ_41693" data-name="グループ 41693" transform="translate(0 102.96)">
        <path id="パス_64568" data-name="パス 64568" class="cls-1" d="M666.07,505.764a5.606,5.606,0,1,0,5.606,5.606A5.611,5.611,0,0,0,666.07,505.764Zm0,10.184a4.579,4.579,0,1,1,4.58-4.578A4.583,4.583,0,0,1,666.07,515.948Z" transform="translate(-534.8 -494.309)"/>
        <path id="パス_64569" data-name="パス 64569" class="cls-1" d="M685.325,505.764a5.606,5.606,0,1,0,5.606,5.606A5.612,5.612,0,0,0,685.325,505.764Zm0,10.184a4.579,4.579,0,1,1,4.578-4.578A4.584,4.584,0,0,1,685.325,515.948Z" transform="translate(-519.981 -494.309)"/>
        <path id="パス_64570" data-name="パス 64570" class="cls-1" d="M641.011,505.764a5.606,5.606,0,1,0,4.339,9.136.143.143,0,0,1,.178-.054c.075.037.061.154.061.154v1.463a.514.514,0,0,0,1.028,0V511.37A5.613,5.613,0,0,0,641.011,505.764Zm0,10.184a4.579,4.579,0,1,1,4.578-4.578A4.584,4.584,0,0,1,641.011,515.948Z" transform="translate(-554.089 -494.309)"/>
        <path id="パス_64571" data-name="パス 64571" class="cls-1" d="M655.6,505.828a5.536,5.536,0,0,0-3.271,1.765,5.627,5.627,0,0,0-1.487,4.058v8.975a.514.514,0,0,0,1.028,0v-5.3a.262.262,0,0,1,.465-.164,5.6,5.6,0,0,0,5.713,1.592,5.519,5.519,0,0,0,3.771-3.736A5.617,5.617,0,0,0,655.6,505.828Zm.848,10.122a4.579,4.579,0,1,1,4.58-4.578A4.583,4.583,0,0,1,656.444,515.949Z" transform="translate(-542.21 -494.225)"/>
        <path id="パス_64572" data-name="パス 64572" class="cls-1" d="M675.854,506.79a4.555,4.555,0,0,1,4.087,2.525.513.513,0,0,0,.917-.461,5.607,5.607,0,1,0,0,5.031.514.514,0,0,0-.917-.463,4.577,4.577,0,1,1-4.087-6.632Z" transform="translate(-527.06 -494.309)"/>
        <path id="パス_64573" data-name="パス 64573" class="cls-1" d="M607.7,505.764a5.606,5.606,0,1,0,5.606,5.606A5.613,5.613,0,0,0,607.7,505.764Zm0,10.184a4.579,4.579,0,1,1,4.58-4.578A4.584,4.584,0,0,1,607.7,515.948Z" transform="translate(-580.008 -494.309)"/>
        <path id="パス_64574" data-name="パス 64574" class="cls-1" d="M626.954,505.764a5.606,5.606,0,1,0,5.606,5.606A5.612,5.612,0,0,0,626.954,505.764Zm0,10.184a4.579,4.579,0,1,1,4.58-4.578A4.584,4.584,0,0,1,626.954,515.948Z" transform="translate(-564.908 -494.309)"/>
        <path id="パス_64575" data-name="パス 64575" class="cls-1" d="M598.133,499.341s-.107,0-.255,0c-.115,0-.276.007-.32.01a8.756,8.756,0,0,0-1.5.213,8.643,8.643,0,0,0-6.37,6.4,9.086,9.086,0,0,0-.231,2.246l.009,0c0,.072-.01.143-.01.215v12.844a.513.513,0,1,0,1.026,0v-8.313a.258.258,0,0,1,.48-.131,8.66,8.66,0,1,0,7.17-13.479Zm0,16.316a7.592,7.592,0,0,1-7.507-9.061c.012-.07.025-.143.038-.213a7.715,7.715,0,0,1,.388-1.248c.016-.037.024-.079.04-.117a7.727,7.727,0,0,1,.683-1.258c.033-.049.073-.091.107-.138a7.665,7.665,0,0,1,.774-.937c.077-.08.162-.152.243-.229a7.685,7.685,0,0,1,.825-.68c.1-.07.2-.136.3-.2a7.341,7.341,0,0,1,.951-.517c.1-.045.2-.094.3-.136a7.835,7.835,0,0,1,1.181-.367c.059-.012.117-.035.178-.047a7.649,7.649,0,1,1,1.5,15.149Z" transform="translate(-589.455 -499.34)"/>
        <path id="パス_64576" data-name="パス 64576" class="cls-1" d="M617.483,506.79a4.557,4.557,0,0,1,4.089,2.525.513.513,0,0,0,.916-.461,5.607,5.607,0,1,0,0,5.031.513.513,0,0,0-.916-.463,4.578,4.578,0,1,1-4.089-6.632Z" transform="translate(-572.2 -494.309)"/>
      </g>
    </g>
    <g id="グループ_41696" data-name="グループ 41696" transform="translate(325 -125.788)">
      <g id="グループ_41695" data-name="グループ 41695">
        <path id="パス_64577" data-name="パス 64577" class="cls-1" d="M626.057,523.9c0,.062-.071.082-.123.1-.172.041-.194.052-.325.224-.215.286-1.405,1.67-1.7,1.67-.153,0-.57-.366-.57-.529,0-.092.153-.183.224-.234a5.93,5.93,0,0,0,1.4-1.536c.06-.112.112-.215.194-.215S626.057,523.748,626.057,523.9Zm.772-2.382a.287.287,0,0,0,.286-.316v-.172c0-.417-.021-.824-.052-1.241,0-.041-.011-.082-.011-.123,0-.1.082-.131.174-.131a4.445,4.445,0,0,1,.611.08c.172.022.355.032.355.144,0,.049-.041.082-.071.112-.133.131-.142.172-.142.6v.731a.286.286,0,0,0,.275.316H630c.426,0,.854-.021,1.271-.021.254,0,.254.114.254.458,0,.3-.011.417-.254.417-.428,0-.845-.03-1.271-.03h-1.732a.3.3,0,0,0-.284.295v3.115c0,.54.009.988-.54,1.261a2.676,2.676,0,0,1-.966.267c-.295,0-.478-.613-.478-.714,0-.172.232-.153.366-.161.794-.052.753-.45.753-1.211v-2.556a.3.3,0,0,0-.295-.295H625.13c-.415,0-.833.03-1.25.03-.245,0-.245-.161-.245-.426,0-.3-.011-.458.245-.458.344,0,.824.03,1.25.03Zm4,2.728c.163.163.886.865.886,1.048s-.417.54-.559.54c-.112,0-.194-.123-.256-.2a9.625,9.625,0,0,0-1.506-1.528c-.071-.06-.172-.131-.172-.232,0-.133.327-.521.5-.521C629.934,523.35,630.646,524.073,630.829,524.248Zm1.364-4.406a.994.994,0,0,1-.985.985.986.986,0,1,1,0-1.973A.994.994,0,0,1,632.193,519.841Zm-1.536,0a.55.55,0,1,0,.551-.551A.546.546,0,0,0,630.657,519.841Z" transform="translate(-623.34 -518.854)"/>
        <path id="パス_64578" data-name="パス 64578" class="cls-1" d="M634,519.745c.254,0,.51-.022.764-.022.417,0,.62.071.62.519,0,.286-.011.572-.011.867v3.419c0,.306.021.611.021.865,0,.316-.093.316-.521.316-.374,0-.385-.041-.415-.234-.041-.234-.183-.234-.458-.234h-3.459c-.306,0-.723,0-1.007.019-.084,0-.166.011-.256.011-.234,0-.234-.12-.234-.458s0-.448.234-.448.794.032,1.252.032H634.2a.3.3,0,0,0,.3-.3v-3.214a.3.3,0,0,0-.3-.295h-3.672c-.458,0-1.037.03-1.261.03-.2,0-.226-.144-.226-.488s.041-.417.215-.417c.243,0,.772.03,1.261.03Z" transform="translate(-616.777 -517.863)"/>
        <path id="パス_64579" data-name="パス 64579" class="cls-1" d="M642.28,519.62a7.893,7.893,0,0,0,.988-.041.324.324,0,0,1,.1-.011c.153,0,.234.123.366.275a.961.961,0,0,1,.267.478c0,.112-.133.2-.224.275-.114.09-.775.772-.927.925-.406.417-.815.835-1.252,1.222a.365.365,0,0,1-.234.131c-.172,0-.589-.346-.589-.5,0-.082.163-.2.234-.276a14.458,14.458,0,0,0,1.547-1.517c0-.142-.213-.123-.316-.123H637.5c-.439,0-.876.021-1.312.021-.245,0-.245-.142-.245-.428,0-.316-.009-.458.234-.458.448,0,.884.022,1.323.022Zm-1.953,1.4c.071.009.174.019.174.12,0,.052-.041.082-.073.112-.112.1-.12.2-.161.469l-.03.2a6.2,6.2,0,0,1-2.455,4.466.6.6,0,0,1-.306.153c-.142,0-.63-.377-.63-.549,0-.082.1-.144.224-.224a5.253,5.253,0,0,0,2.321-4.561v-.172c0-.082.019-.112.1-.112C639.593,520.932,640.215,521,640.327,521.024Z" transform="translate(-608.832 -518.032)"/>
        <path id="パス_64580" data-name="パス 64580" class="cls-1" d="M645.823,523.9c0,.062-.073.082-.123.1-.174.041-.193.052-.327.224-.213.286-1.4,1.67-1.7,1.67-.155,0-.572-.366-.572-.529,0-.092.153-.183.224-.234a5.894,5.894,0,0,0,1.4-1.536c.062-.112.114-.215.194-.215S645.823,523.748,645.823,523.9Zm.772-2.382a.286.286,0,0,0,.284-.316v-.172c0-.417-.019-.824-.049-1.241,0-.041-.011-.082-.011-.123,0-.1.082-.131.174-.131a4.413,4.413,0,0,1,.609.08c.174.022.357.032.357.144,0,.049-.041.082-.071.112-.133.131-.142.172-.142.6v.731a.285.285,0,0,0,.273.316h1.74c.428,0,.856-.021,1.274-.021.254,0,.254.114.254.458,0,.3-.011.417-.254.417-.428,0-.846-.03-1.274-.03h-1.73a.293.293,0,0,0-.284.295v3.115c0,.54.009.988-.54,1.261a2.69,2.69,0,0,1-.966.267c-.3,0-.48-.613-.48-.714,0-.172.234-.153.366-.161.794-.052.753-.45.753-1.211v-2.556a.3.3,0,0,0-.295-.295H644.9c-.417,0-.835.03-1.252.03-.243,0-.243-.161-.243-.426,0-.3-.011-.458.243-.458.346,0,.824.03,1.252.03Zm4,2.728c.163.163.886.865.886,1.048s-.417.54-.562.54c-.11,0-.194-.123-.254-.2a9.822,9.822,0,0,0-1.506-1.528c-.071-.06-.172-.131-.172-.232,0-.133.325-.521.5-.521C649.7,523.35,650.412,524.073,650.6,524.248Zm1.364-4.406a.994.994,0,0,1-.987.985.986.986,0,1,1,0-1.973A.994.994,0,0,1,651.959,519.841Zm-1.538,0a.551.551,0,1,0,.551-.551A.547.547,0,0,0,650.421,519.841Z" transform="translate(-600.583 -518.854)"/>
        <path id="パス_64581" data-name="パス 64581" class="cls-1" d="M653.76,519.745c.256,0,.51-.022.764-.022.417,0,.622.071.622.519,0,.286-.011.572-.011.867v3.419c0,.306.022.611.022.865,0,.316-.093.316-.521.316-.376,0-.387-.041-.417-.234-.039-.234-.183-.234-.458-.234H650.3c-.306,0-.721,0-1.007.019-.082,0-.163.011-.254.011-.235,0-.235-.12-.235-.458s0-.448.235-.448.794.032,1.252.032h3.672a.3.3,0,0,0,.295-.3v-3.214a.294.294,0,0,0-.295-.295h-3.672c-.458,0-1.039.03-1.263.03-.2,0-.224-.144-.224-.488s.041-.417.213-.417c.245,0,.775.03,1.263.03Z" transform="translate(-594.019 -517.863)"/>
      </g>
    </g>
  </g>
</svg>
